<svg width="120" height="120" fill="none" xmlns="http://www.w3.org/2000/svg"><path d="M59.942 5.368c30.169 0 54.696 24.435 54.696 54.632s-24.527 54.632-54.696 54.632c-30.169 0-54.58-24.435-54.58-54.632S29.775 5.368 59.942 5.368Zm0-5.368C51.847 0 43.993 1.585 36.6 4.713a59.679 59.679 0 0 0-19.052 12.851A59.736 59.736 0 0 0 4.71 36.634C1.585 44.035 0 51.898 0 60s1.585 15.965 4.71 23.365a59.75 59.75 0 0 0 12.838 19.071A59.675 59.675 0 0 0 36.6 115.287C43.993 118.413 51.847 120 59.942 120c8.095 0 15.954-1.585 23.358-4.712a59.898 59.898 0 0 0 19.089-12.847 59.795 59.795 0 0 0 12.882-19.069C118.408 75.968 120 68.104 120 60s-1.592-15.968-4.729-23.372a59.8 59.8 0 0 0-12.882-19.07 59.883 59.883 0 0 0-19.09-12.846C75.897 1.585 68.038 0 59.943 0Z" fill="#A31E21"/><path d="M59.942 5.368c30.169 0 54.696 24.435 54.696 54.632s-24.527 54.632-54.696 54.632c-30.169 0-54.58-24.435-54.58-54.632S29.775 5.368 59.942 5.368Zm0-4.025c-7.915 0-15.593 1.55-22.821 4.606a58.338 58.338 0 0 0-18.626 12.564A58.408 58.408 0 0 0 5.943 37.157C2.889 44.392 1.34 52.077 1.34 60s1.549 15.61 4.603 22.843a58.411 58.411 0 0 0 12.552 18.644 58.37 58.37 0 0 0 18.626 12.564c7.228 3.057 14.906 4.606 22.821 4.606 7.915 0 15.599-1.549 22.837-4.606a58.562 58.562 0 0 0 18.664-12.56 58.445 58.445 0 0 0 12.594-18.643c3.068-7.237 4.623-14.925 4.623-22.848 0-7.923-1.555-15.61-4.623-22.848a58.426 58.426 0 0 0-12.594-18.643A58.52 58.52 0 0 0 82.779 5.95c-7.237-3.056-14.92-4.606-22.837-4.606Z" fill="#00519C"/><path d="M59.942 114.632c-30.168 0-54.58-24.434-54.58-54.632 0-30.197 24.413-54.632 54.58-54.632 30.168 0 54.696 24.435 54.696 54.632 0 30.198-24.527 54.632-54.696 54.632Z" fill="#fff"/><path d="m26.988 24.64 1.177-1.005c.173-.148.358-.294.555-.438.197-.144.403-.27.618-.376.214-.107.438-.183.671-.23a1.8 1.8 0 0 1 .717 0c.243.047.494.15.75.308.258.16.516.391.777.698l.365.428c.2.235.354.475.462.72.11.246.18.485.212.716.032.23.028.45-.01.652a1.347 1.347 0 0 1-.208.521l.034.041a1.63 1.63 0 0 1 1.39-.111c.479.17.941.518 1.387 1.04l.384.45c.273.32.48.626.619.914.14.288.225.562.257.825.032.262.017.51-.045.748a2.537 2.537 0 0 1-.29.68c-.13.216-.29.424-.477.622-.188.2-.39.391-.609.578l-1.22 1.043-7.518-8.823.002-.001Zm4.582 2.61c.156-.133.28-.276.372-.428a1.1 1.1 0 0 0 .158-.482 1.187 1.187 0 0 0-.093-.538 2.24 2.24 0 0 0-.377-.593l-.308-.361a3.229 3.229 0 0 0-.52-.502 1.38 1.38 0 0 0-.521-.252 1.01 1.01 0 0 0-.537.025 1.637 1.637 0 0 0-.56.331l-.223.192 2.385 2.8.224-.192Zm3.616 4.026c.156-.134.277-.278.365-.433a1.09 1.09 0 0 0 .142-.497 1.296 1.296 0 0 0-.107-.555 2.301 2.301 0 0 0-.384-.6l-.586-.686a3.312 3.312 0 0 0-.522-.504 1.336 1.336 0 0 0-.52-.25 1.024 1.024 0 0 0-.534.026c-.18.056-.366.165-.556.328l-.332.284 2.702 3.172.332-.284v-.002Zm-1.312-11.968 1.31-.788 5.254 8.753 1.784-1.073.713 1.187-3.094 1.861-5.967-9.94Zm7.299-3.833 1.631-.655 6.036 10.072-1.434.575-1.03-1.826-1.709.686.525 2.027-1.44.578-2.582-11.457h.003Zm4.55 7.004-2.803-5.102-.06.024 1.484 5.63 1.38-.554-.002.002Zm2.118-9.324 1.214-.252 3.965 7.102.034-.006c-.048-.175-.104-.37-.169-.583a21.583 21.583 0 0 1-.205-.73 38.194 38.194 0 0 1-.498-2.113l-.858-4.143 1.34-.278 2.352 11.356-1.224.255-3.912-6.906-.046.01c.053.197.113.409.18.638.067.228.14.499.222.81a53.331 53.331 0 0 1 .594 2.582l.691 3.338-1.328.276-2.352-11.356Zm11.471 10.198a3.164 3.164 0 0 1-.511-.03 1.834 1.834 0 0 1-.554-.172 2.036 2.036 0 0 1-.536-.39 2.4 2.4 0 0 1-.46-.677 4.632 4.632 0 0 1-.336-1.047 8.458 8.458 0 0 1-.156-1.493l-.112-4.107a8.1 8.1 0 0 1 .077-1.5c.068-.416.163-.768.284-1.053.121-.285.265-.516.43-.688.164-.172.336-.305.514-.397.179-.094.357-.156.535-.188a3.3 3.3 0 0 1 .496-.055c.401-.01.738.044 1.011.165.273.122.494.292.663.512.17.219.292.478.37.775.076.296.12.612.129.948.006.25.002.479-.014.69-.016.21-.043.443-.078.698l-1.239.033-.016-.59c-.017-.638-.092-1.114-.221-1.427-.13-.313-.313-.467-.549-.46a.709.709 0 0 0-.369.105.714.714 0 0 0-.257.33 2.177 2.177 0 0 0-.145.605c-.03.25-.041.56-.03.93l.143 5.295c.01.363.034.663.07.902.035.238.089.429.16.573a.65.65 0 0 0 .27.301.78.78 0 0 0 .394.082.557.557 0 0 0 .28-.086.695.695 0 0 0 .233-.25c.065-.112.117-.255.153-.426a2.51 2.51 0 0 0 .045-.602l-.03-1.134 1.397-.038.029 1.072c.025.932-.141 1.625-.498 2.078-.357.454-.882.692-1.573.715l.001.001Zm6.01.384a3.552 3.552 0 0 1-.513-.12 1.859 1.859 0 0 1-.528-.267 2.104 2.104 0 0 1-.469-.477 2.438 2.438 0 0 1-.348-.748 4.54 4.54 0 0 1-.159-1.09 8.234 8.234 0 0 1 .101-1.5l.6-4.063a7.866 7.866 0 0 1 .338-1.463 4.47 4.47 0 0 1 .47-.988 2.32 2.32 0 0 1 .55-.602 1.982 1.982 0 0 1 1.164-.39c.187 0 .358.012.514.034.148.022.31.06.488.11.177.05.35.132.52.241.168.11.325.259.473.448.147.19.267.434.357.732.09.299.147.662.165 1.088a8.14 8.14 0 0 1-.1 1.519l-.6 4.064a7.75 7.75 0 0 1-.338 1.45c-.143.396-.3.729-.475.992-.174.264-.36.471-.559.618a2.302 2.302 0 0 1-.59.324c-.194.07-.385.107-.567.112a2.796 2.796 0 0 1-.492-.026l-.002.002Zm.193-1.31a.83.83 0 0 0 .4-.03.664.664 0 0 0 .319-.261c.093-.133.176-.314.246-.544.072-.23.133-.524.187-.882l.768-5.219c.055-.366.081-.675.08-.928 0-.252-.025-.457-.076-.618a.706.706 0 0 0-.228-.36.78.78 0 0 0-.374-.15.8.8 0 0 0-.41.035.716.716 0 0 0-.328.277c-.096.14-.18.33-.254.57a6.35 6.35 0 0 0-.19.912l-.769 5.219a5.853 5.853 0 0 0-.076.898c.003.24.03.439.083.592a.68.68 0 0 0 .235.344.865.865 0 0 0 .384.147l.003-.002Z" fill="#090E35"/><path d="M59.963 94.1c-18.83 0-34.067-15.252-34.067-34.1s15.238-34.1 34.067-34.1c18.83 0 34.14 15.252 34.14 34.1s-15.31 34.1-34.14 34.1Z" fill="#929495"/><path d="M98.67 48.604c-1.379-4.82-8.008-6.792-19.86-5.91-8.037.566-15.638 1.929-22.753 4.066-7.142 2.112-14.208 5.143-21.223 9.09-10.332 5.742-14.78 10.998-13.326 15.776 1.436 4.776 8.014 6.714 19.793 5.85 8.086-.58 15.637-1.921 22.627-3.997 7.114-2.115 14.177-5.121 21.238-9.04 10.364-5.836 14.891-11.11 13.506-15.835h-.002Z" fill="#D4DAEC"/><path d="M98.743 49.008c-1.324-4.835-7.931-6.882-19.791-6.132-8.043.474-15.659 1.752-22.797 3.81-7.167 2.032-14.264 4.983-21.324 8.851-10.397 5.627-14.902 10.832-13.503 15.625 1.383 4.792 7.938 6.804 19.725 6.072 8.092-.489 15.659-1.746 22.672-3.742 7.136-2.035 14.232-4.962 21.337-8.802 10.429-5.72 15.015-10.942 13.682-15.682h-.001Zm-17.472 5.021c.73 2.607-1.67 5.435-7.198 8.476a59.858 59.858 0 0 1-12.063 4.932 58.225 58.225 0 0 1-12.803 2.174c-6.272.331-9.777-.82-10.53-3.435-.73-2.607 1.638-5.413 7.141-8.452a57.833 57.833 0 0 1 12.067-4.961 58.713 58.713 0 0 1 12.85-2.171c6.28-.356 9.803.799 10.537 3.434l-.001.003Zm-9.73 2.767c-1.012-3.55-5.376-4.21-13.098-2.004-7.722 2.205-11.064 5.099-10.069 8.642 1.02 3.527 5.355 4.183 13.078 1.98 7.722-2.206 11.084-5.068 10.09-8.617v-.001Zm-5.444 25.012c-8.281 2.353-18.042 3.313-29.332 2.905-14.788-.501-23.161-4.081-25.107-10.78-2.256-7.735 2.523-15.387 14.299-22.988 8.389-5.528 17.67-9.746 27.8-12.65 8.334-2.397 18.248-3.397 29.691-3.023 14.84.507 23.202 4.163 25.068 10.95 1.867 6.758-3.383 14.271-15.742 22.536-9.498 6.326-18.396 10.698-26.677 13.051v-.001Zm-12.862 18.76-.238 1.003-1.837-.437-1.321 5.557-1.136-.271 1.321-5.557-1.846-.44.239-1.003 4.82 1.148h-.002Zm1.26 4.281-.278 2.62-1.162-.124.713-6.705 1.903.202c.426.046.786.132 1.079.259.294.127.528.285.704.476.176.191.297.409.362.655.066.246.083.512.054.796a2.157 2.157 0 0 1-.161.63 1.871 1.871 0 0 1-.804.904 2.213 2.213 0 0 1-.617.235c.137.105.25.247.34.425l1.299 2.643-1.044-.111a.479.479 0 0 1-.41-.296l-1.084-2.286a.486.486 0 0 0-.144-.19.542.542 0 0 0-.256-.078l-.497-.054.003-.001Zm.096-.895.726.078c.218.022.413.014.582-.028.169-.042.311-.108.427-.2a.982.982 0 0 0 .274-.344c.067-.136.11-.29.128-.46.036-.34-.04-.612-.229-.818-.189-.205-.498-.329-.927-.376l-.743-.078-.237 2.225-.001.001Zm5.967 3.889-1.172-.006.03-6.742 1.172.005-.03 6.744v-.001Zm6.112-2.014a.212.212 0 0 1 .172.063l.51.488c-.22.363-.506.652-.859.868-.353.216-.788.349-1.306.401a2.95 2.95 0 0 1-1.276-.132 2.763 2.763 0 0 1-1.019-.616 3.166 3.166 0 0 1-.71-1.026 4.38 4.38 0 0 1-.346-1.358 4.007 4.007 0 0 1 .096-1.408 3.21 3.21 0 0 1 .55-1.148c.252-.33.566-.6.943-.808a3.302 3.302 0 0 1 1.277-.382c.463-.046.876-.007 1.24.118.364.126.682.307.955.546l-.332.618a.398.398 0 0 1-.078.107.234.234 0 0 1-.145.056.326.326 0 0 1-.212-.064 2.152 2.152 0 0 0-.703-.296 1.964 1.964 0 0 0-.63-.023c-.293.03-.557.111-.793.246a1.808 1.808 0 0 0-.589.534c-.157.222-.27.484-.34.786a3.056 3.056 0 0 0-.052 1.001c.037.377.12.708.249.992.128.284.287.519.476.703a1.738 1.738 0 0 0 1.405.489c.159-.016.301-.039.428-.071a1.71 1.71 0 0 0 .345-.124c.104-.05.201-.113.292-.185a1.92 1.92 0 0 0 .263-.263.468.468 0 0 1 .084-.076.225.225 0 0 1 .102-.036h.004Zm7.311-3.486c.121.479.16.942.115 1.388a3.303 3.303 0 0 1-.359 1.219 2.915 2.915 0 0 1-.795.945 3.173 3.173 0 0 1-1.194.571c-.46.117-.902.14-1.324.069a2.924 2.924 0 0 1-1.154-.45 3.278 3.278 0 0 1-.897-.9 3.987 3.987 0 0 1-.56-1.275 3.987 3.987 0 0 1-.115-1.388c.045-.445.165-.852.36-1.22.195-.367.461-.683.8-.947a3.201 3.201 0 0 1 1.197-.572c.46-.117.9-.138 1.322-.066.423.072.805.222 1.15.45.345.228.643.528.895.899s.44.795.56 1.275v.002Zm-1.162.296a3.388 3.388 0 0 0-.377-.932 2.152 2.152 0 0 0-.565-.628 1.7 1.7 0 0 0-.72-.302 2.01 2.01 0 0 0-.841.045 2.014 2.014 0 0 0-.763.363 1.72 1.72 0 0 0-.493.61 2.146 2.146 0 0 0-.201.824c-.017.308.019.642.11.999.091.359.218.669.38.931.162.261.352.47.569.625.217.155.458.255.723.3.265.045.546.029.844-.047.297-.076.552-.196.762-.361a1.71 1.71 0 0 0 .489-.608c.116-.239.181-.513.197-.82a3.375 3.375 0 0 0-.112-.999h-.002Zm4.115 1.002 2.333-.936.385.961-3.417 1.371-2.504-6.26 1.084-.435 2.119 5.299Zm3.787-3.457 1.263 2.312-1.025.561-3.232-5.916 1.68-.92c.375-.205.72-.34 1.033-.404.313-.063.597-.067.85-.01.253.055.476.166.67.331.195.166.36.372.498.624.109.2.183.403.226.61a1.868 1.868 0 0 1-.145 1.201 2.212 2.212 0 0 1-.373.544c.173.008.346.06.52.156l2.574 1.429-.922.506a.482.482 0 0 1-.506-.011l-2.192-1.261a.489.489 0 0 0-.225-.074.557.557 0 0 0-.256.082l-.438.24Zm-.431-.79.639-.35c.193-.106.347-.224.462-.354a1.1 1.1 0 0 0 .237-.409.975.975 0 0 0 .03-.439 1.371 1.371 0 0 0-.158-.45c-.164-.3-.382-.48-.654-.54-.272-.06-.597.013-.976.22l-.655.358 1.073 1.964h.002Zm8.92-5.779c.298.394.514.805.645 1.233.132.428.18.85.145 1.263a2.915 2.915 0 0 1-.364 1.181c-.208.373-.5.704-.878.992a3.21 3.21 0 0 1-1.192.58c-.417.1-.83.11-1.237.035a3.264 3.264 0 0 1-1.178-.479 3.974 3.974 0 0 1-1.012-.955 3.992 3.992 0 0 1-.646-1.233 3.268 3.268 0 0 1-.142-1.264c.037-.415.16-.808.367-1.184.208-.375.502-.705.88-.993.379-.287.776-.48 1.192-.578a2.972 2.972 0 0 1 1.235-.032c.406.076.798.236 1.173.479.377.243.714.561 1.013.955h-.002Zm-.956.725a3.346 3.346 0 0 0-.71-.71 2.153 2.153 0 0 0-.764-.36c-.26-.06-.52-.06-.78.002a2.003 2.003 0 0 0-.758.37 2.02 2.02 0 0 0-.562.633c-.13.236-.203.486-.216.754a2.16 2.16 0 0 0 .136.838 3.3 3.3 0 0 0 .49.877c.224.295.46.53.711.71.25.177.506.295.767.354s.521.056.784-.005c.262-.062.515-.186.759-.372.245-.186.431-.396.56-.631a1.7 1.7 0 0 0 .213-.75 2.114 2.114 0 0 0-.137-.833 3.389 3.389 0 0 0-.491-.876l-.002-.001Zm6.007-3.344a.211.211 0 0 1 .172-.063l.704.044c.064.419.032.826-.098 1.218s-.377.776-.742 1.149a2.99 2.99 0 0 1-1.06.723 2.763 2.763 0 0 1-1.176.185 3.174 3.174 0 0 1-1.204-.328 4.376 4.376 0 0 1-1.138-.816 3.98 3.98 0 0 1-.832-1.14 3.213 3.213 0 0 1-.318-1.233 2.99 2.99 0 0 1 .202-1.227c.155-.403.398-.773.731-1.116.325-.335.668-.57 1.025-.708a2.828 2.828 0 0 1 1.081-.199l.144.687c.01.043.013.087.008.132a.248.248 0 0 1-.075.137.328.328 0 0 1-.202.088 2.59 2.59 0 0 0-.314.063c-.122.03-.26.085-.413.164a1.95 1.95 0 0 0-.494.388 1.998 1.998 0 0 0-.45.699c-.095.253-.13.517-.107.788.023.27.104.544.245.821.14.277.342.543.605.799.271.264.547.464.828.598.281.135.554.211.816.23a1.73 1.73 0 0 0 1.39-.532c.111-.115.206-.224.282-.33a1.578 1.578 0 0 0 .289-.647c.023-.113.033-.237.033-.371 0-.04.005-.078.015-.114a.218.218 0 0 1 .054-.092v.003Zm.102-3.804.163-.221a.655.655 0 0 0 .122-.25.475.475 0 0 0-.014-.242l-.87-2.792a.64.64 0 0 1-.032-.307.7.7 0 0 1 .132-.278l.596-.812 1.003 3.365c.031.105.052.2.063.284a.822.822 0 0 1 0 .243.851.851 0 0 1 .281-.115c.1-.021.214-.03.342-.025l3.832.111-.613.834a.62.62 0 0 1-.234.213.513.513 0 0 1-.25.03l-3.057-.043a.54.54 0 0 0-.256.055.72.72 0 0 0-.226.217l-.219.297 2.387 1.757-.691.943-5.431-3.997.69-.943 2.28 1.677h.002Z" fill="#090E35"/><path d="M59.942 5.368c30.17 0 54.696 24.435 54.696 54.632 0 30.198-24.527 54.632-54.696 54.632-30.169 0-54.58-24.434-54.58-54.632 0-30.197 24.413-54.632 54.58-54.632Zm0-2.684c-7.735 0-15.237 1.515-22.299 4.502a57.021 57.021 0 0 0-18.2 12.276A57.061 57.061 0 0 0 7.18 37.679c-2.986 7.068-4.5 14.577-4.5 22.32s1.513 15.252 4.498 22.32a57.08 57.08 0 0 0 12.265 18.217 56.982 56.982 0 0 0 18.2 12.276c7.06 2.987 14.563 4.502 22.298 4.502 7.736 0 15.243-1.515 22.315-4.502a57.198 57.198 0 0 0 18.238-12.274 57.14 57.14 0 0 0 12.307-18.216c2.996-7.071 4.516-14.583 4.516-22.324 0-7.742-1.52-15.254-4.516-22.324a57.106 57.106 0 0 0-12.307-18.216A57.205 57.205 0 0 0 82.257 7.183c-7.072-2.987-14.58-4.501-22.315-4.501v.002Z" fill="#FCD81C"/></svg>