<svg width="120" height="120" fill="none" xmlns="http://www.w3.org/2000/svg"><path d="M59.943 5.368c30.168 0 54.694 24.433 54.694 54.63 0 30.198-24.527 54.631-54.694 54.631s-54.58-24.433-54.58-54.63c0-30.198 24.411-54.631 54.58-54.631Zm0-5.368C51.848 0 43.994 1.585 36.6 4.713a59.699 59.699 0 0 0-19.053 12.85A59.75 59.75 0 0 0 4.708 36.635C1.584 44.035 0 51.896 0 60s1.584 15.965 4.708 23.366a59.742 59.742 0 0 0 12.84 19.07A59.672 59.672 0 0 0 36.6 115.287C43.993 118.413 51.846 120 59.943 120c8.096 0 15.953-1.585 23.356-4.712a59.862 59.862 0 0 0 19.089-12.846 59.775 59.775 0 0 0 12.882-19.069c3.139-7.404 4.73-15.267 4.73-23.371 0-8.105-1.591-15.968-4.73-23.372a59.8 59.8 0 0 0-12.882-19.07A59.88 59.88 0 0 0 83.299 4.716C75.896 1.588 68.038.003 59.943.003V0Z" fill="#A31E21"/><path d="M59.943 5.367c30.168 0 54.694 24.434 54.694 54.631S90.11 114.63 59.943 114.63 5.363 90.196 5.363 60c0-30.198 24.411-54.632 54.58-54.632Zm0-4.026c-7.915 0-15.593 1.55-22.82 4.607A58.341 58.341 0 0 0 18.498 18.51 58.41 58.41 0 0 0 5.946 37.153c-3.054 7.235-4.603 14.92-4.603 22.842 0 7.922 1.55 15.609 4.603 22.842a58.4 58.4 0 0 0 12.552 18.643 58.346 58.346 0 0 0 18.625 12.562c7.228 3.058 14.905 4.607 22.82 4.607 7.914 0 15.598-1.549 22.835-4.607a58.517 58.517 0 0 0 18.663-12.559 58.45 58.45 0 0 0 12.594-18.643c3.068-7.237 4.624-14.925 4.624-22.848 0-7.923-1.556-15.61-4.624-22.848A58.465 58.465 0 0 0 101.441 18.5 58.555 58.555 0 0 0 82.778 5.94c-7.237-3.055-14.92-4.606-22.835-4.606v.006Z" fill="#00519C"/><path d="M59.942 114.628c-30.168 0-54.58-24.434-54.58-54.631 0-30.198 24.412-54.63 54.58-54.63 30.169 0 54.694 24.434 54.694 54.632 0 30.197-24.527 54.63-54.694 54.63v-.001Z" fill="#EA8D2D"/><path d="m33.23 19.742 1.05-.624 5.972 5.345.03-.017c-.1-.148-.215-.31-.344-.49a19.86 19.86 0 0 1-.426-.614 36.689 36.689 0 0 1-1.142-1.809l-2.128-3.584 1.159-.69 5.834 9.828-1.06.63-5.861-5.179-.04.024c.114.167.238.346.374.538.137.192.293.42.467.684.174.264.375.576.6.93.225.358.486.786.782 1.284l1.716 2.89-1.15.683-5.835-9.827.002-.002Zm13.941 5.819c-.15.055-.316.102-.5.14a1.828 1.828 0 0 1-.58.02 2.104 2.104 0 0 1-.632-.19 2.384 2.384 0 0 1-.657-.481 4.515 4.515 0 0 1-.654-.867 7.981 7.981 0 0 1-.622-1.343l-1.407-3.796a7.783 7.783 0 0 1-.402-1.425 4.385 4.385 0 0 1-.062-1.078 2.33 2.33 0 0 1 .19-.781 1.945 1.945 0 0 1 .82-.892c.162-.088.315-.16.46-.214.14-.052.296-.096.474-.136.177-.04.364-.052.562-.038.198.014.405.069.62.162.217.093.436.248.656.462.22.216.44.503.658.862.218.359.429.813.631 1.36l1.408 3.797c.198.531.328 1.002.394 1.414.066.41.087.772.062 1.083a2.234 2.234 0 0 1-.547 1.36 1.787 1.787 0 0 1-.438.367 2.889 2.889 0 0 1-.437.212l.003.002Zm-.454-1.224a.81.81 0 0 0 .331-.217.656.656 0 0 0 .151-.377 1.957 1.957 0 0 0-.044-.587 5.895 5.895 0 0 0-.256-.85l-1.808-4.876a6.393 6.393 0 0 0-.37-.84 2.099 2.099 0 0 0-.359-.498.7.7 0 0 0-.366-.203.757.757 0 0 0-.394.047.793.793 0 0 0-.338.225.707.707 0 0 0-.15.395c-.018.165 0 .37.05.613.05.244.14.536.267.88l1.81 4.875c.123.335.243.605.36.811.115.208.232.365.351.472.12.108.24.17.366.185a.834.834 0 0 0 .4-.056l-.001.001Zm1.773-11.302 1.514-.287 2.752 8.696.063-.011-.599-9.103 1.508-.285.343 11.57-1.69.318-3.89-10.898h-.002Zm9.748-1.308 1.733-.033 2.055 11.394-1.522.03-.313-2.042-1.813.034-.223 2.053-1.529.03 1.614-11.466h-.002Zm1.752 8.048-.806-5.68h-.064l-.596 5.708 1.464-.028h.002Z" fill="#fff" stroke="#fff" stroke-miterlimit="10"/><path d="M59.964 94.096c-18.83 0-34.066-15.25-34.066-34.1 0-18.848 15.236-34.099 34.066-34.099 18.829 0 34.138 15.25 34.138 34.1 0 18.849-15.31 34.099-34.139 34.099Z" fill="#964B21"/><path d="M98.67 48.602c-1.378-4.82-8.008-6.793-19.859-5.91-8.037.567-15.639 1.929-22.754 4.066-7.143 2.112-14.207 5.143-21.223 9.089-10.332 5.743-14.78 10.998-13.326 15.776 1.436 4.774 8.013 6.713 19.792 5.85 8.086-.58 15.637-1.922 22.628-3.996 7.113-2.114 14.176-5.12 21.236-9.04 10.364-5.836 14.891-11.11 13.505-15.834v-.002Z" fill="#D4DAEC"/><path d="M98.742 49.005c-1.325-4.834-7.93-6.88-19.79-6.131-8.043.474-15.66 1.752-22.798 3.81-7.167 2.032-14.265 4.983-21.325 8.851-10.395 5.628-14.902 10.833-13.502 15.625 1.383 4.792 7.938 6.804 19.725 6.072 8.092-.489 15.658-1.745 22.672-3.743 7.137-2.033 14.233-4.962 21.337-8.8 10.427-5.72 15.015-10.943 13.68-15.682v-.002ZM81.27 54.03c.729 2.606-1.67 5.433-7.197 8.477a59.824 59.824 0 0 1-12.063 4.931 58.312 58.312 0 0 1-12.803 2.174c-6.272.332-9.776-.82-10.529-3.435-.73-2.606 1.639-5.413 7.14-8.452 3.893-2.129 7.885-3.775 12.065-4.961a58.728 58.728 0 0 1 12.85-2.17c6.281-.356 9.803.798 10.535 3.434l.002.002Zm-9.73 2.764c-1.01-3.55-5.376-4.208-13.098-2.003-7.72 2.205-11.062 5.099-10.068 8.642 1.02 3.527 5.355 4.182 13.077 1.978 7.723-2.205 11.084-5.065 10.09-8.616Zm-5.444 25.013c-8.282 2.353-18.042 3.312-29.331 2.904-14.788-.501-23.16-4.08-25.105-10.779-2.256-7.734 2.52-15.387 14.298-22.986 8.39-5.528 17.669-9.746 27.8-12.651 8.332-2.395 18.246-3.397 29.69-3.023 14.838.507 23.2 4.163 25.065 10.95 1.868 6.759-3.384 14.272-15.74 22.536-9.499 6.325-18.397 10.696-26.677 13.05v-.001Z" fill="#090E35"/><path d="M59.943 5.368c30.168 0 54.694 24.433 54.694 54.63 0 30.198-24.528 54.631-54.694 54.631-30.167 0-54.58-24.433-54.58-54.63 0-30.198 24.411-54.631 54.58-54.631Zm0-2.685c-7.736 0-15.237 1.515-22.298 4.501a56.998 56.998 0 0 0-18.2 12.277A57.032 57.032 0 0 0 7.181 37.677c-2.985 7.068-4.498 14.578-4.498 22.32 0 7.742 1.513 15.252 4.498 22.32a57.08 57.08 0 0 0 12.264 18.216 57.023 57.023 0 0 0 18.2 12.277c7.061 2.986 14.564 4.501 22.298 4.501 7.733 0 15.243-1.515 22.315-4.501a57.22 57.22 0 0 0 18.239-12.274 57.103 57.103 0 0 0 12.305-18.216c2.997-7.07 4.516-14.582 4.516-22.323 0-7.74-1.519-15.252-4.516-22.323a57.11 57.11 0 0 0-12.305-18.216 57.252 57.252 0 0 0-18.24-12.275c-7.072-2.987-14.58-4.501-22.314-4.501v.001Z" fill="#FCD81C"/><path d="m51.458 100.463-.237 1.003-1.838-.436-1.315 5.56-1.136-.269 1.315-5.56-1.846-.437.237-1.003 4.821 1.143-.001-.001Zm1.265 4.279-.275 2.62-1.16-.123.705-6.706 1.904.202c.425.045.785.13 1.079.256.294.126.53.285.705.475.176.19.297.409.363.656.066.247.083.511.053.795a2.16 2.16 0 0 1-.16.631 1.848 1.848 0 0 1-.803.904 2.22 2.22 0 0 1-.615.236c.138.106.25.247.339.425l1.302 2.642-1.044-.11a.494.494 0 0 1-.25-.091.561.561 0 0 1-.16-.205l-1.088-2.285a.487.487 0 0 0-.144-.189.533.533 0 0 0-.256-.078l-.497-.052.002-.003Zm.094-.895.726.077c.218.024.413.014.581-.028.168-.041.311-.109.427-.202a.968.968 0 0 0 .274-.344c.066-.137.108-.291.127-.461.036-.34-.04-.612-.23-.816-.19-.205-.499-.329-.93-.374l-.742-.079-.234 2.227h.001Zm5.973 3.881-1.172-.005.023-6.744 1.172.005-.023 6.744Zm6.109-2.021a.209.209 0 0 1 .17.063l.511.488a2.57 2.57 0 0 1-.857.868c-.352.215-.787.35-1.306.402a2.961 2.961 0 0 1-1.275-.13 2.793 2.793 0 0 1-1.02-.615 3.2 3.2 0 0 1-.712-1.026 4.367 4.367 0 0 1-.347-1.357 3.995 3.995 0 0 1 .094-1.409c.114-.434.297-.818.549-1.15.251-.331.565-.6.942-.81a3.268 3.268 0 0 1 1.277-.383c.464-.047.877-.008 1.24.116s.682.305.955.544l-.331.62a.38.38 0 0 1-.079.107.24.24 0 0 1-.144.056.332.332 0 0 1-.213-.062 2.472 2.472 0 0 0-.28-.155 2.22 2.22 0 0 0-.423-.14 1.965 1.965 0 0 0-.629-.022c-.293.03-.557.112-.793.246a1.78 1.78 0 0 0-.587.535c-.158.221-.27.484-.341.786a3.035 3.035 0 0 0-.05 1.002c.037.377.12.707.25.992.128.283.287.517.477.701.19.184.405.318.647.402.24.083.495.111.759.084.158-.015.3-.039.427-.07a1.72 1.72 0 0 0 .346-.125 1.57 1.57 0 0 0 .29-.185c.09-.072.178-.161.264-.263a.416.416 0 0 1 .085-.077.213.213 0 0 1 .1-.036l.004.003Zm7.309-3.495c.122.48.16.942.116 1.387a3.321 3.321 0 0 1-.357 1.221 2.969 2.969 0 0 1-.793.947 3.186 3.186 0 0 1-1.194.572c-.46.118-.902.142-1.324.071a2.96 2.96 0 0 1-1.153-.448 3.271 3.271 0 0 1-.899-.9 3.977 3.977 0 0 1-.562-1.274 3.984 3.984 0 0 1-.117-1.387 3.23 3.23 0 0 1 .36-1.22c.195-.368.46-.683.798-.947a3.21 3.21 0 0 1 1.196-.573c.46-.118.9-.14 1.322-.067.421.072.805.222 1.15.45.346.228.644.526.896.898.253.369.44.794.562 1.273l-.001-.003Zm-1.161.298a3.312 3.312 0 0 0-.379-.931 2.113 2.113 0 0 0-.565-.628 1.68 1.68 0 0 0-.72-.302 1.997 1.997 0 0 0-.842.046 2.013 2.013 0 0 0-.763.363 1.71 1.71 0 0 0-.492.612 2.163 2.163 0 0 0-.201.824c-.017.308.02.64.111.998.091.359.219.669.38.932.162.261.352.47.57.624.216.154.458.255.723.299.266.045.547.03.844-.047.297-.076.551-.197.76-.364.21-.166.373-.368.489-.608.115-.239.18-.513.196-.82a3.362 3.362 0 0 0-.113-.998h.002Zm4.104 1.002 2.333-.938.385.961-3.417 1.373-2.51-6.258 1.084-.435 2.124 5.297h.001Zm3.786-3.462 1.264 2.31-1.024.562-3.238-5.913 1.68-.922a3.76 3.76 0 0 1 1.034-.406c.312-.064.596-.067.85-.012.252.056.477.166.67.33.195.165.36.373.498.623.109.198.185.402.228.608a1.879 1.879 0 0 1-.144 1.201 2.178 2.178 0 0 1-.373.545c.173.008.347.06.522.156l2.573 1.428-.92.506a.494.494 0 0 1-.258.068.568.568 0 0 1-.249-.077l-2.194-1.258a.462.462 0 0 0-.226-.073.537.537 0 0 0-.255.082l-.438.241v.001Zm-.432-.79.64-.35c.192-.105.346-.223.461-.354a1.13 1.13 0 0 0 .237-.409.997.997 0 0 0 .03-.439 1.397 1.397 0 0 0-.157-.451c-.165-.3-.382-.48-.655-.54-.272-.06-.597.015-.976.222l-.655.36 1.075 1.963v-.001Zm8.917-5.79c.298.394.513.806.647 1.234.132.427.18.849.146 1.263a2.913 2.913 0 0 1-.363 1.18c-.207.375-.5.705-.877.993a3.208 3.208 0 0 1-1.192.582c-.416.1-.83.112-1.238.036a3.243 3.243 0 0 1-1.178-.478 3.947 3.947 0 0 1-1.013-.955 4.015 4.015 0 0 1-.647-1.233 3.26 3.26 0 0 1-.145-1.264 2.96 2.96 0 0 1 .366-1.184 3.19 3.19 0 0 1 .878-.994 3.17 3.17 0 0 1 1.191-.58c.416-.097.828-.11 1.233-.032.407.075.798.234 1.175.476.377.243.715.56 1.013.955l.004.002Zm-.956.726a3.33 3.33 0 0 0-.71-.71 2.167 2.167 0 0 0-.765-.358c-.26-.06-.52-.06-.78.001a2.02 2.02 0 0 0-.758.371 2.018 2.018 0 0 0-.56.633c-.13.236-.201.487-.216.755-.012.267.033.547.137.836.104.29.267.582.492.876.223.294.46.532.711.71.252.177.508.295.767.353.26.059.522.055.782-.006.263-.063.516-.187.76-.373a2.01 2.01 0 0 0 .558-.63 1.7 1.7 0 0 0 .213-.75 2.129 2.129 0 0 0-.139-.832 3.346 3.346 0 0 0-.493-.876h.001Zm6.004-3.351a.214.214 0 0 1 .17-.063l.706.044c.065.42.033.826-.097 1.218-.13.393-.377.775-.74 1.15a2.977 2.977 0 0 1-1.06.723 2.809 2.809 0 0 1-1.176.187 3.18 3.18 0 0 1-1.203-.326c-.4-.193-.78-.465-1.139-.814a3.991 3.991 0 0 1-.834-1.14 3.218 3.218 0 0 1-.32-1.232 3.01 3.01 0 0 1 .2-1.227c.154-.4.398-.773.731-1.116.325-.335.666-.571 1.024-.71a2.87 2.87 0 0 1 1.081-.2l.145.688a.37.37 0 0 1 .008.132.238.238 0 0 1-.074.137.328.328 0 0 1-.203.088 2.081 2.081 0 0 0-.727.228 1.967 1.967 0 0 0-.495.388 1.996 1.996 0 0 0-.45.7 1.795 1.795 0 0 0-.105.788c.022.27.105.544.245.821.142.277.343.543.605.799.272.264.548.464.83.598.28.133.553.21.817.228a1.73 1.73 0 0 0 1.388-.534c.112-.114.204-.224.282-.33.076-.105.138-.21.185-.317.047-.106.082-.216.104-.33.022-.114.032-.238.032-.372a.38.38 0 0 1 .016-.113.21.21 0 0 1 .055-.093h-.001Zm.1-3.806.161-.22a.68.68 0 0 0 .123-.25.482.482 0 0 0-.016-.244l-.872-2.792a.64.64 0 0 1-.033-.306.696.696 0 0 1 .132-.279l.596-.813 1.007 3.364c.03.106.051.2.062.283a.844.844 0 0 1 0 .244.864.864 0 0 1 .281-.115c.101-.022.216-.03.343-.026l3.832.106-.612.834a.606.606 0 0 1-.234.214.518.518 0 0 1-.25.03l-3.055-.04a.56.56 0 0 0-.256.054.733.733 0 0 0-.226.217l-.218.297 2.389 1.754-.691.942-5.436-3.99.691-.944 2.28 1.674.001.006Z" fill="#fff" stroke="#fff" stroke-miterlimit="10"/></svg>