<svg width="120" height="120" fill="none" xmlns="http://www.w3.org/2000/svg"><path d="M59.943 5.368c30.168 0 54.694 24.433 54.694 54.63 0 30.198-24.527 54.631-54.694 54.631s-54.58-24.435-54.58-54.63c0-30.196 24.413-54.631 54.58-54.631Zm0-5.368C51.848 0 43.994 1.585 36.6 4.713a59.699 59.699 0 0 0-19.053 12.85A59.75 59.75 0 0 0 4.708 36.635C1.584 44.035 0 51.896 0 60s1.584 15.965 4.708 23.366a59.742 59.742 0 0 0 12.84 19.07A59.64 59.64 0 0 0 36.6 115.287C43.993 118.413 51.846 120 59.943 120c8.096 0 15.953-1.585 23.356-4.712a59.862 59.862 0 0 0 19.089-12.846 59.775 59.775 0 0 0 12.882-19.069c3.139-7.404 4.73-15.267 4.73-23.371 0-8.105-1.591-15.968-4.73-23.372a59.8 59.8 0 0 0-12.882-19.07A59.88 59.88 0 0 0 83.299 4.716C75.897 1.585 68.038 0 59.943 0Z" fill="#A31E21"/><path d="M59.943 5.368c30.168 0 54.694 24.433 54.694 54.63 0 30.198-24.527 54.631-54.694 54.631s-54.58-24.434-54.58-54.63S29.776 5.368 59.943 5.368Zm0-4.026c-7.915 0-15.593 1.55-22.82 4.606a58.341 58.341 0 0 0-18.625 12.563A58.41 58.41 0 0 0 5.946 37.154c-3.054 7.234-4.603 14.92-4.603 22.841 0 7.922 1.55 15.61 4.603 22.842a58.392 58.392 0 0 0 12.552 18.643 58.349 58.349 0 0 0 18.625 12.563c7.228 3.057 14.905 4.606 22.82 4.606 7.914 0 15.598-1.549 22.835-4.606a58.52 58.52 0 0 0 18.663-12.56 58.443 58.443 0 0 0 12.594-18.642c3.068-7.238 4.624-14.925 4.624-22.849 0-7.923-1.556-15.61-4.624-22.848a58.466 58.466 0 0 0-12.594-18.643 58.557 58.557 0 0 0-18.663-12.56c-7.237-3.055-14.92-4.606-22.835-4.606v.007Z" fill="#00519C"/><path d="M59.943 114.629c-30.169 0-54.58-24.433-54.58-54.63 0-30.198 24.413-54.631 54.58-54.631 30.167 0 54.694 24.433 54.694 54.63 0 30.198-24.527 54.631-54.694 54.631Z" fill="#1E448E"/><path d="m15.032 44.877.443-1.177c.05-.133.112-.278.186-.434a2.41 2.41 0 0 1 .274-.446 1.92 1.92 0 0 1 .4-.38 1.55 1.55 0 0 1 .559-.245c.217-.05.47-.061.757-.033.288.029.617.114.99.255l.207.079c.625.236 1.106.506 1.439.811.333.305.531.642.59 1.011l3.718.093-.432 1.148-3.433-.209-.152.406 3.074 1.16-.4 1.065-8.22-3.103v-.001Zm4.707.374a1.5 1.5 0 0 0 .11-.51.72.72 0 0 0-.123-.41 1.247 1.247 0 0 0-.386-.348 4.002 4.002 0 0 0-.676-.316l-.65-.245a2.82 2.82 0 0 0-.567-.157.96.96 0 0 0-.445.026.75.75 0 0 0-.34.233 1.538 1.538 0 0 0-.258.467l-.062.164 3.335 1.258.062-.163v.001Zm-1.8-7.143.631-1.175 8.405 2.92-.555 1.034-1.486-.562-.661 1.23 1.29.923-.558 1.037-7.068-5.409.002.002Zm6.048 1.86-4.108-1.602-.024.044 3.598 2.552.534-.994Zm-3.357-6.455.705-.975a9.16 9.16 0 0 1 .347-.449 2.28 2.28 0 0 1 .426-.4c.158-.114.339-.2.54-.259.201-.058.432-.07.693-.036.26.035.554.126.883.272.326.148.696.37 1.107.669l2.066 1.498c.412.3.738.58.98.848.244.267.421.519.534.755.113.236.173.46.18.668.006.21-.02.41-.079.596a2.22 2.22 0 0 1-.247.529 8.65 8.65 0 0 1-.317.468l-.707.976-7.112-5.16Zm7.212 3.436a1.26 1.26 0 0 0 .227-.474.676.676 0 0 0-.075-.452 1.895 1.895 0 0 0-.421-.507 9.436 9.436 0 0 0-.8-.635l-2.207-1.601a9.36 9.36 0 0 0-.853-.563 1.924 1.924 0 0 0-.613-.242.673.673 0 0 0-.454.069 1.26 1.26 0 0 0-.378.365l-.173.239 5.57 4.043.174-.239.003-.003Zm-3.08-8.705.784-.852 6.462 5.956-.783.852-6.463-5.956ZM34.9 30.703c-.093.08-.2.158-.323.235a1.358 1.358 0 0 1-.415.17 1.606 1.606 0 0 1-.506.031 1.839 1.839 0 0 1-.602-.171c-.217-.1-.45-.249-.702-.452a6.294 6.294 0 0 1-.807-.802l-2.029-2.362a5.93 5.93 0 0 1-.669-.92 3.374 3.374 0 0 1-.331-.76 1.769 1.769 0 0 1-.07-.614 1.494 1.494 0 0 1 .354-.862 2.542 2.542 0 0 1 .58-.502c.118-.075.25-.135.396-.178.146-.042.31-.058.491-.048.181.009.38.062.597.158.217.096.451.246.704.447.253.201.526.472.819.813l2.028 2.362c.284.33.504.636.661.916.157.278.269.534.333.765.065.232.09.44.076.628a1.75 1.75 0 0 1-.107.5c-.057.146-.13.274-.219.38a2.139 2.139 0 0 1-.257.27l-.002-.004Zm-.653-.76a.633.633 0 0 0 .182-.246.511.511 0 0 0 .008-.313 1.513 1.513 0 0 0-.189-.412 4.501 4.501 0 0 0-.411-.546l-2.605-3.034a5.003 5.003 0 0 0-.492-.508 1.671 1.671 0 0 0-.39-.264.528.528 0 0 0-.32-.049.587.587 0 0 0-.271.14.62.62 0 0 0-.184.254.53.53 0 0 0-.003.325c.03.125.099.268.199.43.1.162.244.349.427.563l2.605 3.033c.179.208.338.372.476.49.138.117.265.2.38.246a.51.51 0 0 0 .314.037.665.665 0 0 0 .275-.148l-.001.001Zm3.285-10.547-1.084.582-.497-.925 3.184-1.71.497.927-1.08.58 3.656 6.824-1.02.548-3.657-6.824v-.002Zm4.018-3.146 1.175-.446c.134-.05.283-.1.448-.148a2.33 2.33 0 0 1 .517-.088c.179-.01.361.005.55.048.187.042.37.129.551.257.18.13.357.312.525.548.168.236.323.54.465.91l.078.208c.238.626.352 1.165.346 1.617-.008.453-.13.822-.368 1.112l2.391 2.852-1.145.436-2.114-2.716-.406.154 1.166 3.076-1.062.403-3.115-8.222h-.002Zm2.834 3.782c.19-.073.341-.158.454-.255a.703.703 0 0 0 .227-.363 1.25 1.25 0 0 0 .004-.52 4.027 4.027 0 0 0-.209-.715l-.246-.65a2.826 2.826 0 0 0-.258-.53.958.958 0 0 0-.314-.316.754.754 0 0 0-.4-.102 1.592 1.592 0 0 0-.52.115l-.163.061 1.265 3.336.163-.061h-.003Zm3.464-5.902 1.123-.285 2.154 8.525-1.123.285-2.154-8.526Zm7.182 7.603a2.536 2.536 0 0 1-.389.02 1.4 1.4 0 0 1-.432-.084 1.512 1.512 0 0 1-.437-.25 1.829 1.829 0 0 1-.403-.472 3.509 3.509 0 0 1-.34-.761c-.1-.307-.18-.678-.24-1.114l-.423-3.085a6.298 6.298 0 0 1-.066-1.137 3.36 3.36 0 0 1 .128-.818c.069-.227.157-.41.267-.554a1.431 1.431 0 0 1 .743-.528c.132-.04.254-.066.37-.082.302-.04.56-.027.776.043.216.069.396.179.542.33.147.15.26.336.343.553.083.217.141.452.176.703a5.579 5.579 0 0 1 .047 1.054l-.93.127-.061-.443c-.066-.48-.16-.832-.285-1.057-.124-.225-.274-.326-.452-.302a.531.531 0 0 0-.269.11.531.531 0 0 0-.166.27 1.653 1.653 0 0 0-.06.468c-.003.19.016.426.053.704l.546 3.98c.037.271.078.496.125.674.047.178.102.316.168.418.065.102.142.17.23.205a.6.6 0 0 0 .304.028.416.416 0 0 0 .205-.088.521.521 0 0 0 .154-.208c.04-.09.067-.2.08-.333a1.92 1.92 0 0 0-.016-.458l-.116-.852 1.05-.145.11.805c.097.702.03 1.237-.203 1.608-.233.37-.608.594-1.127.67l-.003.001Zm4.876-.327c-.122 0-.254-.011-.397-.031a1.437 1.437 0 0 1-.426-.14 1.613 1.613 0 0 1-.405-.306 1.828 1.828 0 0 1-.346-.522 3.53 3.53 0 0 1-.242-.799 6.191 6.191 0 0 1-.092-1.135l-.01-3.114c0-.444.029-.821.088-1.136a3.3 3.3 0 0 1 .242-.794c.1-.215.215-.385.346-.513a1.473 1.473 0 0 1 .828-.425c.14-.02.27-.03.39-.03.112 0 .238.009.378.026.138.02.278.06.416.123.138.063.273.157.405.281.132.125.249.294.35.508.103.214.185.48.247.798.063.317.095.701.096 1.15l.011 3.115c0 .436-.028.811-.09 1.126a3.54 3.54 0 0 1-.244.799c-.1.218-.217.393-.35.527a1.74 1.74 0 0 1-.404.31 1.378 1.378 0 0 1-.414.147c-.136.024-.26.037-.37.038l-.007-.003Zm-.003-1.005a.637.637 0 0 0 .297-.068.51.51 0 0 0 .21-.232c.054-.11.095-.255.123-.436.029-.18.041-.407.04-.683l-.013-4c0-.282-.016-.516-.046-.707a1.567 1.567 0 0 0-.127-.454.527.527 0 0 0-.21-.244.6.6 0 0 0-.297-.07.619.619 0 0 0-.303.072.545.545 0 0 0-.214.245 1.532 1.532 0 0 0-.126.456 4.92 4.92 0 0 0-.04.706l.012 4c0 .275.016.501.044.682a1.4 1.4 0 0 0 .129.434c.056.11.129.187.215.231a.665.665 0 0 0 .305.066l.001.002Zm4.831-7.641 1.15.142-.952 7.685 1.566.195-.129 1.042-2.716-.336 1.081-8.727v-.002Zm5.294.822 1.218.31c.138.036.289.083.452.138.164.055.32.13.473.225.152.094.294.212.421.355.129.143.23.32.303.529.074.21.113.46.116.75.004.29-.044.627-.142 1.012l-.055.214c-.165.648-.38 1.156-.646 1.523-.266.366-.578.599-.94.698l.32 3.71-1.188-.303-.172-3.44-.42-.107-.813 3.188-1.101-.282 2.171-8.52h.003Zm.148 4.724c.196.05.369.068.517.052a.686.686 0 0 0 .392-.169c.114-.095.214-.237.302-.422.087-.184.167-.42.24-.707l.172-.673c.056-.22.086-.413.092-.582a.961.961 0 0 0-.075-.438.762.762 0 0 0-.269-.313 1.562 1.562 0 0 0-.491-.206l-.17-.043-.881 3.457.17.042v.002Zm4.32 5.945a2.628 2.628 0 0 1-.356-.18 1.442 1.442 0 0 1-.6-.729 1.83 1.83 0 0 1-.123-.613 3.442 3.442 0 0 1 .08-.832c.064-.316.18-.678.344-1.085l1.172-2.886a6.1 6.1 0 0 1 .512-1.018c.174-.267.349-.481.525-.642a1.77 1.77 0 0 1 .514-.344 1.499 1.499 0 0 1 .928-.079 2.476 2.476 0 0 1 .712.287c.12.069.234.16.339.272.104.111.193.25.269.415a1.7 1.7 0 0 1 .13.604c.013.237-.011.514-.074.832a6.146 6.146 0 0 1-.349 1.1l-1.172 2.886c-.163.405-.334.74-.51 1.007a3.533 3.533 0 0 1-.528.646 1.81 1.81 0 0 1-.523.354 1.734 1.734 0 0 1-.493.132 1.39 1.39 0 0 1-.439-.02 2.162 2.162 0 0 1-.358-.107Zm.377-.93c.105.043.206.06.3.05a.508.508 0 0 0 .281-.134c.093-.08.186-.2.28-.356.094-.155.193-.361.295-.616l1.507-3.706c.105-.26.18-.484.226-.67.046-.185.063-.34.055-.468a.535.535 0 0 0-.102-.305.59.59 0 0 0-.248-.18.621.621 0 0 0-.308-.048.533.533 0 0 0-.29.146c-.097.085-.194.21-.29.374-.097.164-.2.378-.304.637l-1.506 3.705c-.103.255-.175.47-.216.648-.041.178-.057.33-.046.452a.517.517 0 0 0 .112.295.647.647 0 0 0 .256.177h-.002Zm4.384 3.262a2.412 2.412 0 0 1-.319-.22 1.373 1.373 0 0 1-.29-.329 1.558 1.558 0 0 1-.195-.464 1.826 1.826 0 0 1-.033-.62 3.67 3.67 0 0 1 .193-.81 6.46 6.46 0 0 1 .486-1.03l1.54-2.707c.22-.386.433-.699.64-.942.208-.244.407-.435.599-.571.191-.139.374-.23.548-.277a1.472 1.472 0 0 1 .911.033c.127.049.242.102.344.16.264.151.46.32.59.505.128.186.205.384.229.593.023.21.001.425-.065.648a3.175 3.175 0 0 1-.289.665 5.136 5.136 0 0 1-.28.442 7.64 7.64 0 0 1-.325.422l-.815-.466.222-.388c.238-.42.378-.758.416-1.013.04-.255-.02-.426-.176-.514a.539.539 0 0 0-.281-.078.528.528 0 0 0-.296.114 1.709 1.709 0 0 0-.331.335c-.118.15-.247.347-.387.591l-1.985 3.49a5.8 5.8 0 0 0-.31.612c-.07.168-.111.314-.12.434a.51.51 0 0 0 .056.302c.048.08.122.149.224.207a.434.434 0 0 0 .216.055.53.53 0 0 0 .25-.07c.086-.048.175-.12.267-.216.09-.096.179-.22.265-.373l.426-.747.92.526-.402.706c-.35.615-.729.998-1.139 1.15-.41.154-.843.102-1.3-.155h-.004Zm8.111-5.358.924.7-2.316 3.062.029.022 3.37-2.263.921.697-3.663 2.396-1.507 4.715-.988-.748 1.405-4.185-.029-.022-2.522 3.337-.924-.7 5.302-7.01h-.002Z" fill="#fff" stroke="#fff" stroke-miterlimit="10"/><path d="M59.964 94.097c-18.829 0-34.066-15.25-34.066-34.099 0-18.849 15.237-34.1 34.066-34.1 18.83 0 34.139 15.251 34.139 34.1 0 18.849-15.31 34.1-34.139 34.1Z" fill="#7593CB"/><path d="M98.67 48.602c-1.378-4.818-8.008-6.792-19.859-5.908-8.037.566-15.639 1.928-22.754 4.065-7.143 2.112-14.207 5.143-21.223 9.089-10.332 5.743-14.78 10.998-13.326 15.776 1.436 4.774 8.013 6.714 19.792 5.85 8.086-.58 15.637-1.922 22.628-3.996 7.113-2.114 14.176-5.12 21.236-9.04 10.364-5.836 14.891-11.11 13.505-15.834v-.002Z" fill="#D4DAEC"/><path d="M98.744 49.007c-1.325-4.834-7.93-6.88-19.791-6.132-8.042.475-15.66 1.752-22.798 3.81-7.166 2.033-14.264 4.983-21.324 8.852C24.436 61.164 19.93 66.37 21.33 71.162c1.383 4.792 7.938 6.803 19.725 6.072 8.092-.49 15.657-1.746 22.672-3.743 7.137-2.034 14.233-4.962 21.336-8.801 10.428-5.72 15.016-10.943 13.682-15.681v-.002ZM81.272 54.03c.729 2.606-1.67 5.433-7.197 8.477a59.824 59.824 0 0 1-12.063 4.931 58.31 58.31 0 0 1-12.803 2.174c-6.272.332-9.776-.82-10.529-3.435-.73-2.606 1.639-5.413 7.14-8.452 3.893-2.129 7.885-3.775 12.065-4.96a58.736 58.736 0 0 1 12.85-2.17c6.281-.355 9.803.799 10.535 3.435h.002Zm-9.73 2.764c-1.01-3.55-5.377-4.208-13.098-2.003-7.72 2.205-11.062 5.099-10.068 8.642 1.02 3.527 5.355 4.182 13.077 1.978 7.722-2.205 11.084-5.065 10.09-8.616Zm-5.444 25.013c-8.282 2.353-18.042 3.312-29.331 2.904-14.788-.501-23.16-4.08-25.106-10.779-2.255-7.734 2.522-15.387 14.3-22.986 8.388-5.528 17.668-9.746 27.799-12.651 8.332-2.395 18.246-3.397 29.69-3.023 14.838.507 23.2 4.163 25.065 10.95 1.868 6.759-3.384 14.272-15.74 22.536-9.499 6.325-18.397 10.696-26.677 13.05v-.001Z" fill="#090E35"/><path d="M27.446 91.676c-.203-.212-.29-.44-.261-.686.028-.244.17-.487.426-.733l1.893-1.802-.308-.324a.139.139 0 0 1-.04-.1c0-.037.022-.075.063-.114l.217-.206.484.38 1.059-.8a.167.167 0 0 1 .108-.036c.038 0 .07.017.1.047l.227.24-1.065 1.014.732.77-.394.376-.733-.77-1.856 1.767c-.13.124-.201.244-.212.359a.371.371 0 0 0 .106.302c.047.05.096.085.146.107.05.022.096.037.14.045.044.01.082.016.115.02.033.005.056.013.07.028.023.025.026.062.01.116l-.129.385a1.245 1.245 0 0 1-.9-.384l.002-.001Zm1.466 1.375 2.876-3.156.277.252c.051.047.078.092.077.133 0 .041-.024.093-.068.156l-.416.522c.295-.135.567-.2.818-.198.252.003.47.088.655.258a.895.895 0 0 1 .275.456l-.44.357c-.06.04-.111.04-.155 0a.516.516 0 0 1-.09-.135.88.88 0 0 0-.191-.23.772.772 0 0 0-.576-.215c-.215.01-.457.086-.728.23l-1.832 2.01-.482-.44Zm5.765-.651L32 95.728l-.507-.409 2.677-3.328.507.41Zm.955-.951a.538.538 0 0 1-.158.135.626.626 0 0 1-.186.068.448.448 0 0 1-.355-.084.37.37 0 0 1-.111-.144.556.556 0 0 1 .085-.56.609.609 0 0 1 .158-.14.532.532 0 0 1 .374-.07.399.399 0 0 1 .278.226c.027.056.04.118.042.184a.585.585 0 0 1-.129.387l.002-.002Zm1.68 3.814a.329.329 0 0 1-.09.025c-.025.003-.053-.006-.083-.028-.03-.02-.052-.058-.068-.112a1.329 1.329 0 0 0-.198-.422 1.018 1.018 0 0 0-.252-.241.998.998 0 0 0-.458-.184.963.963 0 0 0-.47.063 1.565 1.565 0 0 0-.468.295 2.813 2.813 0 0 0-.443.508 2.762 2.762 0 0 0-.332.609 1.575 1.575 0 0 0-.114.538.969.969 0 0 0 .1.45c.067.135.169.25.306.345.13.092.25.148.358.172.108.023.207.033.294.028a2.29 2.29 0 0 0 .221-.022c.061-.01.11-.003.145.022a.135.135 0 0 1 .06.13l-.005.331a1.434 1.434 0 0 1-.781.063 1.883 1.883 0 0 1-.718-.31 1.444 1.444 0 0 1-.624-1.14 2.152 2.152 0 0 1 .112-.764c.088-.273.23-.55.43-.836.182-.26.382-.478.6-.655.219-.177.443-.304.676-.378.232-.074.47-.096.712-.06.24.035.475.134.706.294.213.15.373.321.481.515.109.195.175.409.2.641l-.296.121-.001.002Zm2.523.554a1.7 1.7 0 0 1 .559.501c.138.2.224.42.262.662.038.243.024.5-.04.777-.063.277-.178.56-.345.85a3.134 3.134 0 0 1-.559.73 2.044 2.044 0 0 1-.649.424 1.56 1.56 0 0 1-.702.105 1.7 1.7 0 0 1-.713-.232 1.705 1.705 0 0 1-.561-.5 1.561 1.561 0 0 1-.266-.661 2.055 2.055 0 0 1 .037-.777c.063-.275.177-.56.344-.852.166-.291.353-.533.559-.727a2.06 2.06 0 0 1 .653-.425c.23-.09.464-.124.706-.105.242.019.479.096.715.231v-.001Zm-1.897 3.307c.318.183.626.197.923.04.297-.155.571-.45.823-.89.253-.443.372-.831.356-1.168-.015-.336-.182-.596-.5-.778a1.006 1.006 0 0 0-.474-.147.937.937 0 0 0-.454.104 1.511 1.511 0 0 0-.43.338c-.14.153-.272.339-.398.557a3.06 3.06 0 0 0-.278.623c-.06.195-.084.376-.072.54a.936.936 0 0 0 .506.78l-.002.001Zm5.695-3.434-2.683 5.601-.588-.281 2.683-5.602.588.281Zm-1.268 6.248 1.604-3.96.345.14c.066.026.105.06.118.097a.31.31 0 0 1-.01.17l-.208.634c.23-.228.462-.386.699-.47a.955.955 0 0 1 .704.014.964.964 0 0 1 .243.141.89.89 0 0 1 .171.19l-.289.488c-.042.058-.09.077-.144.055a.515.515 0 0 1-.13-.096.887.887 0 0 0-.26-.15.78.78 0 0 0-.614-.002c-.198.083-.4.24-.603.47l-1.021 2.521-.605-.246v.004Zm5.827-2.484c.26.08.478.202.657.367.177.163.312.36.402.586.09.229.133.483.132.768 0 .283-.052.585-.15.904a3.14 3.14 0 0 1-.386.835c-.157.235-.338.42-.539.557a1.532 1.532 0 0 1-.661.256 1.718 1.718 0 0 1-.748-.069 1.716 1.716 0 0 1-.656-.363 1.536 1.536 0 0 1-.404-.585 2.047 2.047 0 0 1-.137-.766c0-.283.05-.585.15-.907.098-.32.227-.598.386-.832.159-.235.34-.422.543-.559.203-.136.425-.223.665-.258a1.69 1.69 0 0 1 .748.068l-.002-.002Zm-1.122 3.644c.35.109.654.054.91-.163s.459-.568.606-1.051c.15-.486.181-.891.092-1.217-.09-.324-.308-.541-.659-.65a1.01 1.01 0 0 0-.495-.037.961.961 0 0 0-.42.201 1.534 1.534 0 0 0-.346.425 3.27 3.27 0 0 0-.266.63 3.16 3.16 0 0 0-.135.669c-.015.204 0 .385.047.542a.932.932 0 0 0 .236.401c.108.11.253.192.43.247v.003Zm5.896-1.62a.325.325 0 0 1-.072.059.126.126 0 0 1-.088.007c-.036-.007-.071-.033-.106-.075a1.297 1.297 0 0 0-.346-.31 1.037 1.037 0 0 0-.328-.123 1.01 1.01 0 0 0-.493.011.981.981 0 0 0-.408.244 1.571 1.571 0 0 0-.313.456c-.088.186-.157.4-.207.642a2.757 2.757 0 0 0-.066.69c.01.208.044.387.107.54a.963.963 0 0 0 .267.374.927.927 0 0 0 .418.198c.155.033.287.038.397.018a1.17 1.17 0 0 0 .281-.09 1.92 1.92 0 0 0 .195-.107c.052-.033.099-.046.143-.036a.132.132 0 0 1 .107.096l.122.306a1.422 1.422 0 0 1-.694.365 1.893 1.893 0 0 1-.782-.003 1.439 1.439 0 0 1-1.023-.802 2.096 2.096 0 0 1-.196-.745 3.128 3.128 0 0 1 .067-.938 3.22 3.22 0 0 1 .294-.838c.13-.248.289-.453.473-.613.185-.161.394-.272.63-.335a1.64 1.64 0 0 1 .765-.008c.253.053.468.148.644.285.176.136.32.306.435.511l-.223.229v-.008Zm1.94-2.444-.427 3.632.168.02c.049.006.09.003.123-.009a.352.352 0 0 0 .116-.082l1.334-1.299a.61.61 0 0 1 .122-.096.233.233 0 0 1 .151-.025l.59.069-1.553 1.503c-.04.044-.079.082-.115.114a.666.666 0 0 1-.122.083.75.75 0 0 1 .105.129c.03.047.058.101.083.16l1.194 2.265-.583-.069a.258.258 0 0 1-.132-.052.38.38 0 0 1-.094-.124l-1.007-1.881a.301.301 0 0 0-.096-.128.416.416 0 0 0-.16-.047l-.182-.022-.239 2.027-.65-.077.726-6.17.65.078-.002.001Zm2.632 6.024a.622.622 0 0 1 .044-.205.547.547 0 0 1 .103-.163.44.44 0 0 1 .151-.107.401.401 0 0 1 .358.017.487.487 0 0 1 .231.294.61.61 0 0 1 .025.208.607.607 0 0 1-.044.206.528.528 0 0 1-.105.162.471.471 0 0 1-.152.105.414.414 0 0 1-.358-.017.457.457 0 0 1-.227-.289.61.61 0 0 1-.025-.211h-.001Zm4.615-3.007a.284.284 0 0 1-.058.072.122.122 0 0 1-.083.027.192.192 0 0 1-.12-.051 1.99 1.99 0 0 0-.165-.113 1.04 1.04 0 0 0-.59-.159 1.01 1.01 0 0 0-.477.12.964.964 0 0 0-.343.329c-.092.141-.16.312-.205.514a2.88 2.88 0 0 0-.06.671c.005.258.035.488.089.689.055.2.13.368.224.502s.21.237.344.307a.936.936 0 0 0 .451.099 1.023 1.023 0 0 0 .646-.222 2.31 2.31 0 0 0 .166-.148c.044-.044.087-.066.13-.068.057 0 .098.022.126.07l.189.27a1.423 1.423 0 0 1-.596.51c-.24.11-.494.166-.763.171a1.411 1.411 0 0 1-.649-.137 1.498 1.498 0 0 1-.526-.418 2.135 2.135 0 0 1-.358-.684 3.151 3.151 0 0 1-.143-.93 3.255 3.255 0 0 1 .1-.884c.073-.272.181-.506.325-.704a1.555 1.555 0 0 1 1.286-.645 1.535 1.535 0 0 1 1.23.535l-.169.273-.001.004Zm2.353-1.041c.269-.03.519-.005.748.074.23.078.429.206.602.379.172.173.314.39.425.651.112.261.186.557.222.89.036.335.03.642-.022.918a2.073 2.073 0 0 1-.273.727c-.13.208-.299.373-.506.499a1.729 1.729 0 0 1-.713.234 1.7 1.7 0 0 1-.747-.072 1.55 1.55 0 0 1-.603-.378 2.021 2.021 0 0 1-.429-.648 3.085 3.085 0 0 1-.223-.892 3.144 3.144 0 0 1 .024-.916c.053-.279.146-.523.278-.729.132-.206.301-.374.507-.501a1.68 1.68 0 0 1 .713-.236h-.003Zm.418 3.79c.364-.041.62-.211.77-.511.15-.301.195-.703.14-1.206-.055-.507-.189-.891-.4-1.153-.21-.263-.497-.375-.862-.334-.184.021-.34.074-.468.162a.957.957 0 0 0-.306.353 1.523 1.523 0 0 0-.15.526c-.023.205-.02.433.008.685.029.251.076.473.142.666.066.194.152.353.259.479.105.125.23.217.375.275.145.058.308.077.494.056l-.002.002Zm2.98.173-.97-4.16.378-.088c.09-.022.158.016.207.112l.146.417a2.07 2.07 0 0 1 .34-.57.985.985 0 0 1 .534-.316.818.818 0 0 1 .648.095c.187.121.346.306.475.556.014-.162.05-.308.107-.437a1.203 1.203 0 0 1 .504-.568 1.34 1.34 0 0 1 .34-.132c.19-.044.367-.049.532-.014.165.035.314.107.45.217.134.11.252.256.353.439.1.182.18.401.238.653l.62 2.648-.635.148-.62-2.649c-.075-.325-.196-.558-.358-.698-.163-.14-.362-.182-.596-.126a.724.724 0 0 0-.487.379.936.936 0 0 0-.098.349c-.012.134 0 .284.04.449l.618 2.648-.634.148-.62-2.649c-.078-.333-.194-.569-.348-.706a.605.605 0 0 0-.567-.127.75.75 0 0 0-.404.248 1.58 1.58 0 0 0-.276.483l.724 3.102-.635.147-.006.002Zm6.729-4.811 1.685-.659.231.593-1.685.659-.231-.593Zm8.447-1.781a.673.673 0 0 1-.483.093c-.155-.033-.301-.135-.438-.311-.011.267-.065.486-.16.654a1.026 1.026 0 0 1-.393.393.796.796 0 0 1-.374.113.77.77 0 0 1-.353-.075 1.087 1.087 0 0 1-.321-.238c-.1-.105-.19-.228-.272-.37a2.347 2.347 0 0 1-.254-.686 2.06 2.06 0 0 1-.017-.747c.039-.247.13-.483.271-.707.142-.223.346-.41.611-.561a1.581 1.581 0 0 1 .763-.236l.456 1.493c.065.206.13.37.198.489.05.088.1.155.153.2a.404.404 0 0 0 .155.092.295.295 0 0 0 .153.003.576.576 0 0 0 .386-.333c.055-.121.082-.264.082-.431 0-.165-.028-.348-.087-.546a2.907 2.907 0 0 0-.268-.616 2.923 2.923 0 0 0-.646-.807 2.092 2.092 0 0 0-.75-.415 1.806 1.806 0 0 0-.799-.049 2.329 2.329 0 0 0-.796.286 2.026 2.026 0 0 0-.693.642 2.313 2.313 0 0 0-.355.887c-.06.325-.057.668.008 1.028.064.362.198.72.399 1.073.235.415.5.747.791.997.293.25.597.425.915.525.317.101.638.129.964.087.325-.043.64-.151.943-.324a3.18 3.18 0 0 0 .785-.609 2.89 2.89 0 0 0 .467-.673.181.181 0 0 1 .068-.082c.044-.025.094-.014.149.032l.217.196a3.099 3.099 0 0 1-.54.856 3.414 3.414 0 0 1-.901.711 2.997 2.997 0 0 1-1.14.382 2.712 2.712 0 0 1-1.154-.112 3.113 3.113 0 0 1-1.076-.618 4.22 4.22 0 0 1-.908-1.132 3.844 3.844 0 0 1-.35-.82 3.723 3.723 0 0 1-.146-.831 3.33 3.33 0 0 1 .049-.804 2.721 2.721 0 0 1 .661-1.367c.171-.188.37-.349.6-.48.195-.111.4-.194.614-.253a2.51 2.51 0 0 1 1.951.285c.205.124.398.283.582.475.183.192.348.418.498.68.15.264.256.526.319.786.062.26.083.505.062.733-.02.228-.081.432-.182.613-.1.18-.24.32-.42.423l.005.006Zm-1.606.334a.642.642 0 0 0 .298-.39 1.03 1.03 0 0 0 .03-.348 2.136 2.136 0 0 0-.093-.472l-.372-1.218a1.222 1.222 0 0 0-.289.12 1 1 0 0 0-.372.365c-.09.153-.146.318-.17.497a1.67 1.67 0 0 0 .019.557c.038.192.105.373.2.541.1.176.215.297.345.364.13.066.266.06.402-.02l.002.004Zm5.17-1.709c-.24.171-.476.226-.714.165-.237-.062-.46-.235-.666-.522l-1.525-2.124-.363.262a.13.13 0 0 1-.104.025c-.037-.007-.072-.032-.105-.077l-.174-.242.441-.428-.649-1.16a.17.17 0 0 1-.022-.111.144.144 0 0 1 .06-.093l.267-.192.86 1.195.862-.62.317.441-.862.621 1.495 2.083c.106.146.214.233.327.26a.372.372 0 0 0 .314-.065.462.462 0 0 0 .126-.13.673.673 0 0 0 .064-.131.978.978 0 0 0 .035-.112.12.12 0 0 1 .036-.066c.028-.02.066-.019.116.005l.365.179c-.02.163-.076.32-.164.469-.088.149-.2.272-.337.37v-.002Zm1.561-1.268L85.47 92.46l.287-.239c.055-.046.102-.064.142-.058.04.006.09.036.144.088l.46.483c-.092-.31-.122-.59-.084-.839a.956.956 0 0 1 .344-.614.912.912 0 0 1 .238-.148.914.914 0 0 1 .249-.063l.295.484c.031.065.025.117-.019.154a.52.52 0 0 1-.146.071.864.864 0 0 0-.253.16.78.78 0 0 0-.292.542c-.02.213.023.465.13.753l1.743 2.088-.502.419v-.002Zm-.687-6.878a.552.552 0 0 1 .125.554.39.39 0 0 1-.102.154.385.385 0 0 1-.159.092.497.497 0 0 1-.185.017.548.548 0 0 1-.355-.176.582.582 0 0 1-.162-.371.488.488 0 0 1 .027-.186.397.397 0 0 1 .26-.245.467.467 0 0 1 .186-.018.597.597 0 0 1 .365.18v-.002Zm.815 1.073 2.936 3.102-.473.448-2.936-3.102.473-.448Zm3.181-2.23c.01.037.014.066.012.092 0 .025-.014.052-.039.078-.025.027-.064.044-.12.052a1.296 1.296 0 0 0-.445.138.998.998 0 0 0-.272.22.998.998 0 0 0-.244.428.977.977 0 0 0 0 .477c.04.165.116.332.231.502.115.17.263.34.445.506.19.176.375.313.559.41.182.1.355.161.518.185a.97.97 0 0 0 .46-.038.926.926 0 0 0 .382-.258.999.999 0 0 0 .286-.621c.007-.087.01-.16.008-.224-.001-.063.011-.108.041-.141a.133.133 0 0 1 .137-.043l.325.05c.058.273.044.535-.043.784a1.92 1.92 0 0 1-.402.671 1.435 1.435 0 0 1-1.212.468 2.12 2.12 0 0 1-.742-.213 3.114 3.114 0 0 1-.77-.54 3.193 3.193 0 0 1-.568-.682 2.102 2.102 0 0 1-.285-.722 1.568 1.568 0 0 1 .035-.714c.066-.234.195-.454.386-.662.176-.19.368-.327.574-.407.207-.082.427-.12.661-.112l.082.31v.006Zm.883-2.428a1.69 1.69 0 0 1 .57-.49 1.56 1.56 0 0 1 .69-.172c.245-.005.5.042.763.143.266.1.53.251.795.456.267.206.484.423.647.65.164.23.276.463.335.7.06.238.063.476.011.712a1.72 1.72 0 0 1-.325.677 1.7 1.7 0 0 1-.569.49c-.213.111-.444.17-.69.176a2.055 2.055 0 0 1-.764-.139 3.087 3.087 0 0 1-.799-.454 3.043 3.043 0 0 1-.644-.653 2.015 2.015 0 0 1-.333-.704 1.589 1.589 0 0 1-.01-.714c.05-.238.158-.463.323-.678Zm3.022 2.32c.224-.291.277-.595.164-.911-.115-.316-.372-.628-.773-.934-.404-.31-.773-.48-1.108-.508-.334-.029-.614.102-.837.393a1.009 1.009 0 0 0-.207.451.943.943 0 0 0 .042.464c.054.157.146.315.278.472.132.159.299.314.5.469.2.154.394.273.58.36.185.085.36.133.524.143a.948.948 0 0 0 .457-.082c.142-.064.269-.17.382-.318h-.002Zm-2.644-6.109 5.19 3.405-.356.546-5.19-3.405.358-.546h-.002Zm6.02 2.086-3.707-2.117.185-.326c.035-.061.073-.096.113-.105a.318.318 0 0 1 .167.031l.6.293a1.917 1.917 0 0 1-.372-.755.956.956 0 0 1 .108-.697.87.87 0 0 1 .385-.366l.445.35c.051.05.064.101.034.151a.496.496 0 0 1-.113.117.879.879 0 0 0-.182.237.775.775 0 0 0-.085.609c.056.208.184.428.385.66l2.36 1.348-.324.568.001.002Zm-1.679-6.115a1.7 1.7 0 0 1 .45-.603c.186-.154.397-.26.634-.319.237-.058.496-.068.776-.028.28.039.572.13.875.27.306.142.564.307.775.494.21.187.37.392.479.61.11.219.165.45.165.69 0 .243-.055.487-.17.732a1.705 1.705 0 0 1-.448.602 1.56 1.56 0 0 1-.634.323c-.238.06-.497.07-.776.033a3.085 3.085 0 0 1-.879-.27 3.043 3.043 0 0 1-.77-.495 2.039 2.039 0 0 1-.48-.613 1.576 1.576 0 0 1-.167-.694 1.697 1.697 0 0 1 .167-.732h.003Zm3.456 1.6c.154-.333.14-.64-.039-.923-.181-.283-.5-.53-.958-.742-.462-.214-.86-.299-1.193-.253-.333.046-.576.234-.73.566a1 1 0 0 0-.104.486c.01.156.057.304.143.444.086.141.212.273.376.399.163.126.36.24.589.348.229.106.444.18.644.223.2.042.381.05.543.025a.95.95 0 0 0 .429-.18 1 1 0 0 0 .303-.392h-.003Zm-.808-6.065a.337.337 0 0 1 .047.079c.01.024.008.053-.004.088-.013.035-.043.066-.09.094a1.548 1.548 0 0 0-.163.115 1.026 1.026 0 0 0-.357.495.997.997 0 0 0-.056.491.98.98 0 0 0 .185.44c.1.134.237.259.408.372.172.112.374.209.607.292.243.087.468.14.674.16.206.018.389.007.548-.034a.95.95 0 0 0 .407-.214c.111-.1.196-.23.253-.387a1.008 1.008 0 0 0 .02-.682 1.563 1.563 0 0 0-.08-.208c-.027-.056-.031-.105-.017-.146a.132.132 0 0 1 .11-.093l.319-.08c.16.228.248.475.267.738a1.92 1.92 0 0 1-.109.775 1.433 1.433 0 0 1-.356.56 1.52 1.52 0 0 1-.577.344 2.103 2.103 0 0 1-.765.095 3.143 3.143 0 0 1-.919-.195 3.195 3.195 0 0 1-.79-.406 2.125 2.125 0 0 1-.544-.552 1.54 1.54 0 0 1-.246-.67c-.03-.242.001-.496.097-.76a1.57 1.57 0 0 1 .37-.6c.158-.156.347-.277.565-.362l.196.253v-.002Zm-2.149-2.269 3.535.923.042-.164a.252.252 0 0 0 .008-.122.373.373 0 0 0-.064-.128l-1.103-1.5a.715.715 0 0 1-.079-.134.238.238 0 0 1-.003-.152l.15-.576 1.274 1.746c.037.045.07.088.097.129a.62.62 0 0 1 .066.132.69.69 0 0 1 .143-.087c.05-.023.108-.042.17-.06l2.405-.872-.148.567a.259.259 0 0 1-.069.125.413.413 0 0 1-.135.077l-2 .74a.313.313 0 0 0-.14.078.368.368 0 0 0-.067.152l-.046.178 1.973.516-.165.635-6.004-1.568.165-.635h-.005Z" fill="#FFFBEB" stroke="#FFF8E1" stroke-miterlimit="10"/><path d="M59.943 5.368c30.168 0 54.694 24.433 54.694 54.63 0 30.198-24.528 54.631-54.694 54.631-30.167 0-54.58-24.435-54.58-54.63 0-30.196 24.413-54.631 54.58-54.631Zm0-2.683c-7.736 0-15.237 1.514-22.298 4.5a56.999 56.999 0 0 0-18.2 12.277A57.034 57.034 0 0 0 7.181 37.68C4.196 44.747 2.683 52.257 2.683 60c0 7.742 1.513 15.252 4.498 22.32a57.089 57.089 0 0 0 12.264 18.216 57.02 57.02 0 0 0 18.2 12.276c7.061 2.987 14.564 4.501 22.298 4.501 7.733 0 15.243-1.514 22.315-4.501a57.218 57.218 0 0 0 18.239-12.273 57.11 57.11 0 0 0 12.305-18.217c2.997-7.07 4.516-14.582 4.516-22.322 0-7.741-1.519-15.253-4.516-22.323a57.109 57.109 0 0 0-12.305-18.217 57.254 57.254 0 0 0-18.24-12.275c-7.072-2.986-14.58-4.5-22.314-4.5Z" fill="#FCD81C"/></svg>