<svg width="120" height="120" fill="none" xmlns="http://www.w3.org/2000/svg"><path d="M59.943 5.369c30.168 0 54.696 24.433 54.696 54.631s-24.527 54.631-54.696 54.631c-30.17 0-54.58-24.435-54.58-54.631S29.775 5.369 59.943 5.369Zm0-5.368c-8.096 0-15.95 1.586-23.343 4.714a59.693 59.693 0 0 0-19.052 12.85 59.743 59.743 0 0 0-12.839 19.07C1.584 44.035 0 51.896 0 60s1.584 15.964 4.71 23.366a59.75 59.75 0 0 0 12.838 19.07A59.653 59.653 0 0 0 36.6 115.287C43.993 118.414 51.847 120 59.943 120s15.953-1.586 23.357-4.712a59.87 59.87 0 0 0 19.089-12.846 59.779 59.779 0 0 0 12.882-19.07C118.409 75.969 120 68.106 120 60s-1.591-15.967-4.729-23.373a59.791 59.791 0 0 0-12.882-19.069A59.85 59.85 0 0 0 83.3 4.712C75.896 1.586 68.037 0 59.943 0v.001Z" fill="#A31E21"/><path d="M59.943 5.37c30.168 0 54.696 24.433 54.696 54.63 0 30.198-24.526 54.632-54.696 54.632-30.17 0-54.58-24.435-54.58-54.632 0-30.196 24.412-54.63 54.58-54.63Zm0-4.027c-7.914 0-15.593 1.55-22.82 4.608a58.37 58.37 0 0 0-18.626 12.563A58.413 58.413 0 0 0 5.944 37.158C2.89 44.392 1.342 52.077 1.342 60c0 7.924 1.55 15.608 4.602 22.843a58.404 58.404 0 0 0 12.553 18.644 58.351 58.351 0 0 0 18.626 12.563c7.228 3.057 14.906 4.608 22.82 4.608 7.915 0 15.599-1.55 22.836-4.607a58.544 58.544 0 0 0 18.664-12.56 58.438 58.438 0 0 0 12.593-18.642c3.068-7.238 4.623-14.925 4.623-22.849 0-7.923-1.556-15.61-4.623-22.848a58.448 58.448 0 0 0-12.593-18.642A58.544 58.544 0 0 0 82.779 5.95c-7.237-3.057-14.921-4.607-22.836-4.607Z" fill="#00519C"/><path d="M59.943 114.631c-30.168 0-54.58-24.433-54.58-54.631S29.775 5.369 59.943 5.369 114.639 29.802 114.639 60s-24.527 54.631-54.696 54.631Z" fill="#FCB42C"/><path d="m22.665 29.331 1.139-1.34 10.033 6.088-1 1.179-1.761-1.135-1.192 1.405 1.409 1.548-1.004 1.183-7.624-8.928Zm7.288 4.07-4.856-3.2-.043.049 3.936 4.286.963-1.133V33.4Zm-2.601-9.189 1.561-1.24 3.543 2.916c.39.327.747.647 1.072.963.325.317.633.614.924.892l.037-.03a206.5 206.5 0 0 0-.656-1.103 20.19 20.19 0 0 1-.693-1.266l-2.005-4.136 1.529-1.215 7.197 9.086-1.118.888-2.382-3.006a92.49 92.49 0 0 1-1.94-2.536 51.968 51.968 0 0 1-1.178-1.66l-.088.07 3.506 6.878-.757.602-5.9-4.977-.088.07a56.74 56.74 0 0 1 1.345 1.528 91.088 91.088 0 0 1 2.024 2.469l2.382 3.006-1.12.888-7.196-9.087Zm9.788-6.809 1.564-.802 6.941 9.47-1.375.705-1.193-1.721-1.637.84.71 1.97-1.38.708-3.63-11.168v-.002Zm5.177 6.553-3.263-4.819-.057.03 1.997 5.467 1.323-.68v.002Zm1.263-9.467 1.582-.49c.18-.056.382-.108.603-.16.221-.05.45-.074.687-.074.236 0 .476.036.718.108.243.072.478.2.706.386.228.186.444.44.646.762.203.323.382.736.538 1.238l.086.279c.262.843.368 1.563.322 2.157-.047.595-.24 1.073-.576 1.433l2.913 3.953-1.544.477-2.56-3.748-.547.17 1.282 4.144-1.431.444-3.424-11.08h-.001Zm3.42 5.21c.256-.08.46-.18.617-.298a.927.927 0 0 0 .327-.46c.06-.188.077-.416.048-.684a5.302 5.302 0 0 0-.216-.96l-.271-.876a3.654 3.654 0 0 0-.296-.718 1.292 1.292 0 0 0-.387-.441.992.992 0 0 0-.517-.167 2.054 2.054 0 0 0-.695.108l-.22.068 1.39 4.494.22-.068v.001Zm5.118-7.399 1.51-.228 1.726 11.467-1.51.228L52.117 12.3Zm5.929-.63 1.528-.018.117 10.211 2.081-.024.016 1.386-3.609.041-.133-11.597Zm7.198.244 1.513.212-1.412 10.114 2.062.288-.192 1.372-3.575-.5 1.604-11.485v-.001Zm5.644 13.101a3.52 3.52 0 0 1-.488-.2c-.172-.083-.33-.2-.479-.345a2.107 2.107 0 0 1-.389-.545 2.465 2.465 0 0 1-.228-.793 4.527 4.527 0 0 1 .013-1.102 8.24 8.24 0 0 1 .334-1.464l1.224-3.92a8.074 8.074 0 0 1 .561-1.394c.2-.371.407-.672.619-.903a2.33 2.33 0 0 1 .637-.508 1.96 1.96 0 0 1 1.21-.206c.185.03.353.068.502.115a3.5 3.5 0 0 1 .464.184 1.952 1.952 0 0 1 .873.834c.116.21.196.47.239.78.043.31.041.677-.007 1.101a8.17 8.17 0 0 1-.337 1.485l-1.224 3.92a7.819 7.819 0 0 1-.56 1.379c-.203.37-.41.673-.624.907-.213.235-.43.409-.648.524-.219.113-.43.19-.633.228a1.815 1.815 0 0 1-.579.021 2.813 2.813 0 0 1-.481-.101l.001.003Zm.395-1.263a.82.82 0 0 0 .4.033.672.672 0 0 0 .356-.208c.112-.116.222-.283.328-.498.106-.215.213-.497.321-.84l1.573-5.036a6.42 6.42 0 0 0 .224-.905c.039-.248.046-.456.022-.623a.705.705 0 0 0-.168-.391.797.797 0 0 0-.347-.209.813.813 0 0 0-.41-.029.717.717 0 0 0-.367.223c-.116.123-.23.296-.34.523-.11.227-.22.517-.331.872l-1.573 5.035c-.108.346-.18.638-.215.875a1.94 1.94 0 0 0-.01.598c.027.16.087.286.178.377.09.09.21.159.356.204l.003-.001Z" fill="#620710" stroke="#620810" stroke-miterlimit="10"/><path d="M59.964 94.099c-18.83 0-34.066-15.252-34.066-34.1 0-18.847 15.237-34.099 34.066-34.099 18.83 0 34.139 15.252 34.139 34.1 0 18.847-15.31 34.099-34.139 34.099Z" fill="#F7941D"/><path d="M98.67 48.603c-1.378-4.818-8.008-6.791-19.858-5.909-8.038.566-15.639 1.928-22.754 4.066-7.142 2.112-14.208 5.142-21.224 9.089-10.332 5.742-14.78 10.999-13.326 15.776 1.436 4.776 8.014 6.714 19.792 5.85 8.086-.579 15.637-1.921 22.628-3.996 7.113-2.114 14.176-5.12 21.237-9.04 10.364-5.835 14.891-11.109 13.505-15.834v-.002Z" fill="#D4DAEC"/><path d="M98.744 49.008c-1.324-4.835-7.93-6.881-19.792-6.13-8.042.474-15.658 1.752-22.797 3.809-7.167 2.031-14.264 4.983-21.324 8.85-10.396 5.627-14.903 10.833-13.503 15.626 1.382 4.792 7.94 6.804 19.726 6.072 8.092-.49 15.658-1.746 22.672-3.743 7.136-2.034 14.232-4.961 21.337-8.801 10.428-5.72 15.015-10.943 13.681-15.683Zm-17.473 5.021c.73 2.607-1.67 5.434-7.197 8.477a59.89 59.89 0 0 1-12.063 4.932 58.237 58.237 0 0 1-12.803 2.173c-6.272.332-9.776-.82-10.529-3.435-.73-2.607 1.639-5.412 7.141-8.45a57.857 57.857 0 0 1 12.066-4.962 58.656 58.656 0 0 1 12.85-2.17c6.28-.355 9.803.798 10.536 3.434v.002Zm-9.728 2.766c-1.012-3.55-5.377-4.208-13.099-2.005-7.72 2.206-11.064 5.1-10.069 8.642 1.02 3.526 5.355 4.182 13.077 1.978 7.723-2.205 11.084-5.067 10.091-8.616v.001Zm-5.445 25.013c-8.282 2.354-18.043 3.313-29.332 2.906-14.787-.502-23.162-4.082-25.107-10.78C9.403 66.2 14.18 58.548 25.958 50.947c8.388-5.528 17.67-9.745 27.8-12.65 8.333-2.396 18.246-3.395 29.69-3.023 14.84.506 23.202 4.163 25.067 10.95 1.868 6.758-3.384 14.27-15.741 22.535-9.498 6.326-18.396 10.697-26.678 13.05h.002Z" fill="#090E35"/><path d="m53.246 100.569-.238 1.002-1.838-.438-1.32 5.559-1.136-.271 1.32-5.558-1.845-.44.239-1.002 4.82 1.147-.002.001Zm1.265 4.281-.277 2.62-1.161-.123.71-6.706 1.904.203c.426.045.786.131 1.08.258.294.126.528.284.706.475.176.191.297.408.362.655.066.246.083.511.054.796a2.162 2.162 0 0 1-.162.63 1.913 1.913 0 0 1-.325.519 1.89 1.89 0 0 1-.477.386c-.184.105-.39.184-.616.235.137.105.25.247.338.426l1.3 2.642-1.045-.11a.498.498 0 0 1-.25-.092.565.565 0 0 1-.16-.205l-1.086-2.286a.464.464 0 0 0-.144-.188.542.542 0 0 0-.256-.079l-.496-.054.001-.002Zm.095-.895.725.078c.22.023.412.015.582-.028.168-.042.31-.108.426-.202a.988.988 0 0 0 .275-.343c.067-.136.11-.289.128-.46.036-.341-.04-.613-.23-.817-.189-.204-.498-.33-.927-.375l-.743-.079-.236 2.226Zm5.964 3.886-1.171-.005.03-6.744 1.171.006-.03 6.743Zm6.114-2.015a.209.209 0 0 1 .172.062l.51.489a2.56 2.56 0 0 1-.858.867c-.352.217-.788.35-1.307.402a2.95 2.95 0 0 1-1.276-.131 2.786 2.786 0 0 1-1.019-.615 3.164 3.164 0 0 1-.71-1.026 4.382 4.382 0 0 1-.347-1.358 4.005 4.005 0 0 1 .096-1.408 3.22 3.22 0 0 1 .55-1.149c.251-.331.566-.601.942-.808a3.296 3.296 0 0 1 1.277-.383c.464-.047.878-.007 1.24.117.363.125.682.307.955.545l-.33.618a.36.36 0 0 1-.08.105.235.235 0 0 1-.145.058.325.325 0 0 1-.21-.063 2.066 2.066 0 0 0-.704-.295 1.96 1.96 0 0 0-.628-.023c-.294.03-.559.111-.794.246a1.816 1.816 0 0 0-.588.534c-.156.222-.27.483-.34.786a3.006 3.006 0 0 0-.052 1.001c.038.378.12.708.25.992.128.284.288.518.477.702a1.74 1.74 0 0 0 1.405.487c.16-.016.302-.038.427-.07a1.64 1.64 0 0 0 .637-.31c.091-.073.18-.16.264-.263a.399.399 0 0 1 .084-.076.22.22 0 0 1 .102-.036v.003Zm7.313-3.489a4 4 0 0 1 .115 1.388 3.31 3.31 0 0 1-.358 1.22 2.918 2.918 0 0 1-.794.945 3.188 3.188 0 0 1-1.195.571 3.17 3.17 0 0 1-1.324.07 2.939 2.939 0 0 1-1.153-.45 3.284 3.284 0 0 1-.899-.9 3.988 3.988 0 0 1-.561-1.274 3.988 3.988 0 0 1-.115-1.389c.046-.445.166-.853.36-1.22.195-.367.462-.683.799-.946a3.195 3.195 0 0 1 1.196-.571 3.13 3.13 0 0 1 1.323-.067c.42.072.803.223 1.149.451.344.228.642.529.896.898.252.37.438.796.561 1.274Zm-1.161.296a3.373 3.373 0 0 0-.377-.932 2.164 2.164 0 0 0-.566-.628 1.705 1.705 0 0 0-.72-.303 2.007 2.007 0 0 0-.841.045 2.027 2.027 0 0 0-.764.363 1.71 1.71 0 0 0-.492.612 2.165 2.165 0 0 0-.201.823c-.018.307.018.641.11.999.09.359.218.668.38.93s.352.47.568.625c.217.154.459.255.723.299.265.045.546.029.844-.047.297-.075.55-.196.761-.362.21-.165.374-.368.488-.607.116-.239.181-.513.198-.82a3.365 3.365 0 0 0-.112-.998v.001Zm4.125.995 2.333-.937.386.961-3.418 1.373-2.508-6.26 1.084-.434 2.123 5.297Zm3.789-3.46 1.263 2.311-1.024.562-3.236-5.915 1.68-.92c.375-.206.72-.341 1.032-.405.314-.064.598-.068.851-.012.253.056.477.167.67.33.194.165.36.373.498.624.11.199.184.402.227.61a1.883 1.883 0 0 1-.144 1.2 2.246 2.246 0 0 1-.372.545c.172.008.346.06.521.156l2.573 1.428-.92.506a.493.493 0 0 1-.258.067.566.566 0 0 1-.248-.076l-2.194-1.259a.483.483 0 0 0-.225-.073.55.55 0 0 0-.255.081l-.437.24h-.003Zm-.433-.789.64-.35a1.72 1.72 0 0 0 .463-.354c.115-.131.193-.267.236-.409a.994.994 0 0 0 .03-.439c-.023-.15-.077-.3-.158-.451-.164-.3-.383-.48-.655-.54-.272-.06-.597.014-.976.222l-.654.36 1.074 1.963v-.002Zm8.915-5.786c.299.394.515.805.647 1.233.132.429.18.85.145 1.263a2.924 2.924 0 0 1-.364 1.181c-.208.374-.5.705-.877.992a3.21 3.21 0 0 1-1.192.58c-.416.101-.83.113-1.238.037a3.26 3.26 0 0 1-1.177-.478 3.994 3.994 0 0 1-1.013-.954 3.976 3.976 0 0 1-.647-1.234 3.294 3.294 0 0 1-.144-1.264 2.95 2.95 0 0 1 .367-1.184c.208-.375.5-.706.878-.993a3.16 3.16 0 0 1 1.192-.578c.416-.097.828-.11 1.234-.033.406.076.797.235 1.174.478.378.243.715.56 1.014.954Zm-.955.725a3.34 3.34 0 0 0-.71-.71 2.15 2.15 0 0 0-.766-.358c-.26-.06-.52-.06-.78.001a2.02 2.02 0 0 0-.757.371 2.026 2.026 0 0 0-.561.632 1.703 1.703 0 0 0-.215.755 2.16 2.16 0 0 0 .136.837c.104.29.267.582.49.877.225.295.462.531.713.709.25.178.506.296.766.354.26.057.522.056.783-.007a2 2 0 0 0 .759-.372c.244-.186.43-.397.56-.63.129-.234.2-.485.213-.75a2.13 2.13 0 0 0-.137-.832c-.106-.29-.27-.58-.492-.876l-.002-.001Zm6.003-3.348a.211.211 0 0 1 .173-.063l.705.045c.066.419.032.825-.098 1.217-.131.392-.378.776-.74 1.15a3.002 3.002 0 0 1-1.06.724c-.382.148-.774.21-1.176.186a3.176 3.176 0 0 1-1.204-.328c-.4-.194-.78-.465-1.14-.815a3.992 3.992 0 0 1-.832-1.139 3.227 3.227 0 0 1-.32-1.233c-.02-.416.048-.825.202-1.227.155-.401.398-.773.73-1.116.326-.335.668-.57 1.025-.71a2.822 2.822 0 0 1 1.081-.199l.144.688c.01.042.014.087.008.132a.248.248 0 0 1-.074.137.325.325 0 0 1-.203.088 2.108 2.108 0 0 0-.728.227 1.972 1.972 0 0 0-.495.389 1.985 1.985 0 0 0-.45.7 1.848 1.848 0 0 0-.106.787 2.2 2.2 0 0 0 .246.82c.14.277.342.544.605.799.272.264.548.465.83.598.28.135.553.21.817.23a1.726 1.726 0 0 0 1.389-.533 3.08 3.08 0 0 0 .281-.33 1.74 1.74 0 0 0 .186-.317c.046-.106.08-.217.102-.33a1.96 1.96 0 0 0 .034-.371.44.44 0 0 1 .014-.112.23.23 0 0 1 .055-.094Zm.104-3.805.161-.22a.675.675 0 0 0 .123-.25.476.476 0 0 0-.016-.243l-.872-2.79a.64.64 0 0 1-.032-.308.688.688 0 0 1 .132-.277l.596-.813 1.005 3.365c.03.105.052.2.064.284a.824.824 0 0 1 0 .243.855.855 0 0 1 .28-.115c.1-.021.215-.03.343-.025l3.832.11-.612.834a.61.61 0 0 1-.235.213.495.495 0 0 1-.25.03l-3.055-.04c-.1 0-.186.017-.256.054a.726.726 0 0 0-.226.216l-.218.298 2.388 1.755-.691.943-5.433-3.993.69-.942 2.28 1.675.002-.004Z" fill="#fff" stroke="#fff" stroke-miterlimit="10"/><path d="M59.943 5.369c30.168 0 54.696 24.434 54.696 54.631 0 30.198-24.527 54.632-54.696 54.632-30.17 0-54.58-24.436-54.58-54.632 0-30.196 24.412-54.631 54.58-54.631Zm0-2.684c-7.735 0-15.237 1.515-22.299 4.5a57.014 57.014 0 0 0-18.2 12.277A57.065 57.065 0 0 0 7.18 37.679C4.195 44.747 2.682 52.257 2.682 60c0 7.743 1.513 15.252 4.497 22.321a57.1 57.1 0 0 0 12.265 18.218 57.028 57.028 0 0 0 18.2 12.276c7.062 2.987 14.564 4.501 22.299 4.501 7.735 0 15.244-1.514 22.316-4.501a57.238 57.238 0 0 0 18.239-12.274 57.108 57.108 0 0 0 12.306-18.216c2.998-7.07 4.518-14.582 4.518-22.323 0-7.742-1.52-15.253-4.518-22.324a57.113 57.113 0 0 0-12.306-18.216A57.212 57.212 0 0 0 82.259 7.188c-7.072-2.986-14.58-4.5-22.316-4.5v-.003Z" fill="#FCD81C"/></svg>