<svg width="120" height="120" fill="none" xmlns="http://www.w3.org/2000/svg"><path d="M59.943 5.367c30.168 0 54.696 24.434 54.696 54.632 0 30.197-24.527 54.631-54.696 54.631-30.17 0-54.58-24.434-54.58-54.631 0-30.198 24.412-54.632 54.58-54.632Zm0-5.367C51.847 0 43.993 1.586 36.6 4.713a59.693 59.693 0 0 0-19.052 12.85A59.743 59.743 0 0 0 4.709 36.635C1.585 44.034 0 51.896 0 60s1.584 15.964 4.71 23.366a59.75 59.75 0 0 0 12.838 19.07A59.653 59.653 0 0 0 36.6 115.287C43.993 118.414 51.847 120 59.943 120s15.953-1.586 23.357-4.712a59.87 59.87 0 0 0 19.089-12.846 59.779 59.779 0 0 0 12.882-19.07C118.409 75.969 120 68.106 120 60s-1.591-15.967-4.729-23.373a59.791 59.791 0 0 0-12.882-19.069A59.85 59.85 0 0 0 83.3 4.712C75.896 1.586 68.037 0 59.943 0Z" fill="#A31E21"/><path d="M59.943 5.367c30.168 0 54.696 24.434 54.696 54.631 0 30.198-24.526 54.632-54.696 54.632-30.17 0-54.58-24.434-54.58-54.631 0-30.198 24.412-54.632 54.58-54.632Zm0-4.026c-7.914 0-15.593 1.55-22.82 4.608a58.37 58.37 0 0 0-18.626 12.563A58.41 58.41 0 0 0 5.944 37.156C2.89 44.39 1.342 52.075 1.342 59.999c0 7.923 1.55 15.607 4.602 22.842a58.403 58.403 0 0 0 12.553 18.644 58.351 58.351 0 0 0 18.626 12.563c7.228 3.057 14.906 4.608 22.82 4.608 7.915 0 15.599-1.55 22.836-4.607a58.544 58.544 0 0 0 18.664-12.56 58.438 58.438 0 0 0 12.593-18.642c3.068-7.238 4.623-14.925 4.623-22.848 0-7.924-1.556-15.611-4.623-22.849a58.447 58.447 0 0 0-12.593-18.642 58.542 58.542 0 0 0-18.664-12.56C75.542 2.89 67.858 1.34 59.943 1.34Z" fill="#00519C"/><path d="M59.943 114.63c-30.168 0-54.58-24.434-54.58-54.631 0-30.198 24.412-54.632 54.58-54.632S114.639 29.801 114.639 60c0 30.197-24.527 54.631-54.696 54.631Z" fill="#1F59A9"/><path d="m35.002 18.62 1.522-.882 7.417 9.101-1.337.776-1.28-1.66-1.592.924.81 1.932-1.342.778-4.198-10.968Zm5.506 6.278-3.506-4.645-.056.033 2.275 5.358 1.287-.746Zm4.009.682-.474-9.738-2.373.894-.488-1.296 3.98-1.5.328.87.468 9.74 2.634-.992.488 1.296-4.234 1.595-.328-.87-.001.001Zm4.024-12.599 1.511-.292 1.61 8.346c.069.357.142.65.218.879.076.23.161.407.256.535.095.128.201.21.319.25a.78.78 0 0 0 .396.016.802.802 0 0 0 .368-.165.696.696 0 0 0 .215-.352c.044-.153.062-.352.053-.595a6.17 6.17 0 0 0-.116-.897l-1.61-8.347 1.492-.288 1.523 7.886c.107.555.16 1.038.16 1.45 0 .41-.038.762-.114 1.053-.077.29-.182.53-.315.718a2.036 2.036 0 0 1-.44.455c-.16.116-.324.201-.493.258-.17.056-.326.097-.468.125a3.66 3.66 0 0 1-.48.058 1.78 1.78 0 0 1-.547-.057 1.936 1.936 0 0 1-.572-.258 2.18 2.18 0 0 1-.556-.55 4.15 4.15 0 0 1-.495-.932 7.909 7.909 0 0 1-.39-1.408l-1.522-7.886-.002-.002Zm8.909-1.285 1.527-.036.244 10.208 2.081-.05.034 1.385-3.608.087-.278-11.593v-.001Z" fill="#fff" stroke="#E2E3E4" stroke-miterlimit="10"/><path d="M59.964 94.098c-18.83 0-34.066-15.251-34.066-34.099s15.237-34.1 34.066-34.1c18.83 0 34.139 15.252 34.139 34.1s-15.31 34.1-34.139 34.1Z" fill="#204A9F" stroke="#222D62" stroke-miterlimit="10"/><path d="M98.67 48.602c-1.378-4.82-8.008-6.792-19.858-5.91-8.038.566-15.639 1.928-22.754 4.066-7.142 2.112-14.208 5.142-21.224 9.089-10.332 5.742-14.78 10.999-13.326 15.776 1.436 4.776 8.014 6.714 19.792 5.85 8.086-.579 15.637-1.921 22.628-3.996 7.113-2.114 14.176-5.12 21.237-9.04 10.364-5.835 14.891-11.109 13.505-15.834v-.001Z" fill="#D4DAEC"/><path d="M98.744 49.007c-1.324-4.835-7.93-6.881-19.792-6.131-8.042.475-15.658 1.752-22.797 3.81-7.167 2.03-14.264 4.982-21.324 8.85-10.396 5.627-14.903 10.832-13.503 15.626 1.382 4.792 7.94 6.803 19.726 6.072 8.092-.49 15.658-1.746 22.672-3.743 7.136-2.034 14.232-4.962 21.337-8.802 10.428-5.72 15.015-10.943 13.681-15.682Zm-17.473 5.021c.73 2.607-1.67 5.434-7.197 8.476a59.891 59.891 0 0 1-12.063 4.932 58.231 58.231 0 0 1-12.803 2.173c-6.272.333-9.776-.82-10.529-3.434-.73-2.607 1.639-5.413 7.141-8.45a57.863 57.863 0 0 1 12.066-4.962 58.662 58.662 0 0 1 12.85-2.17c6.28-.356 9.803.797 10.536 3.434v.001Zm-9.728 2.766c-1.012-3.55-5.377-4.209-13.099-2.005-7.72 2.205-11.064 5.099-10.069 8.642 1.02 3.526 5.355 4.181 13.077 1.978 7.723-2.205 11.084-5.067 10.091-8.617v.002Zm-5.445 25.013c-8.282 2.353-18.043 3.313-29.332 2.906-14.787-.502-23.162-4.082-25.107-10.78-2.256-7.735 2.521-15.387 14.299-22.987 8.388-5.529 17.67-9.746 27.8-12.65 8.333-2.396 18.246-3.396 29.69-3.023 14.84.505 23.202 4.163 25.067 10.949 1.868 6.758-3.384 14.27-15.741 22.536-9.498 6.325-18.396 10.697-26.678 13.05l.002-.001Z" fill="#090E35"/><path d="m53.246 100.568-.238 1.002-1.838-.437-1.32 5.558-1.136-.271 1.32-5.558-1.845-.44.239-1.002 4.82 1.147-.002.001Zm1.262 4.281-.277 2.62-1.162-.124.711-6.706 1.904.203c.425.045.785.13 1.08.257.293.127.528.286.705.475.176.191.298.409.363.656.065.245.083.511.053.795a2.154 2.154 0 0 1-.161.63 1.936 1.936 0 0 1-.325.52 1.89 1.89 0 0 1-.478.385 2.153 2.153 0 0 1-.616.235c.138.106.251.247.339.426l1.3 2.643-1.045-.111a.48.48 0 0 1-.251-.092.569.569 0 0 1-.16-.204l-1.084-2.287a.471.471 0 0 0-.144-.188.542.542 0 0 0-.256-.079l-.496-.052v-.002Zm.095-.895.725.078c.219.022.412.014.581-.028.17-.043.311-.108.427-.202a.988.988 0 0 0 .275-.343c.066-.136.109-.29.128-.46.036-.341-.04-.613-.23-.817-.189-.204-.498-.33-.926-.375l-.743-.079-.236 2.226h-.001Zm5.969 3.886-1.172-.006.03-6.743 1.171.005-.03 6.744Zm6.111-2.016a.21.21 0 0 1 .172.063l.511.488c-.22.362-.507.652-.859.868-.352.216-.788.35-1.306.402a2.98 2.98 0 0 1-1.276-.131 2.8 2.8 0 0 1-1.019-.615 3.19 3.19 0 0 1-.71-1.027 4.376 4.376 0 0 1-.347-1.357 3.976 3.976 0 0 1 .096-1.409 3.22 3.22 0 0 1 .549-1.149c.252-.331.567-.601.943-.808a3.296 3.296 0 0 1 1.277-.383c.464-.045.877-.006 1.24.119.363.126.681.306.955.545l-.332.618a.412.412 0 0 1-.079.107.246.246 0 0 1-.145.056.331.331 0 0 1-.211-.063 2.007 2.007 0 0 0-.704-.295 1.911 1.911 0 0 0-.628-.021 1.96 1.96 0 0 0-.793.245 1.802 1.802 0 0 0-.588.534 2.21 2.21 0 0 0-.342.786c-.07.302-.086.636-.05 1.001.037.378.12.709.25.992.128.283.287.518.476.702a1.74 1.74 0 0 0 1.406.487c.158-.016.301-.038.426-.07a1.612 1.612 0 0 0 .637-.309c.091-.073.18-.16.265-.263a.39.39 0 0 1 .084-.076.22.22 0 0 1 .101-.036l.001-.001Zm7.314-3.487a4 4 0 0 1 .115 1.388 3.293 3.293 0 0 1-.358 1.219 2.931 2.931 0 0 1-.794.946 3.173 3.173 0 0 1-1.195.571 3.17 3.17 0 0 1-1.324.07 2.939 2.939 0 0 1-1.153-.45 3.297 3.297 0 0 1-.899-.9 3.968 3.968 0 0 1-.561-1.274 3.988 3.988 0 0 1-.115-1.389 3.28 3.28 0 0 1 .36-1.22c.195-.367.462-.683.799-.946a3.195 3.195 0 0 1 1.196-.571 3.13 3.13 0 0 1 1.323-.067 2.96 2.96 0 0 1 1.149.451c.345.228.642.527.896.898.253.371.438.796.561 1.275v-.001Zm-1.161.295a3.373 3.373 0 0 0-.377-.932 2.15 2.15 0 0 0-.566-.629 1.717 1.717 0 0 0-.72-.303 2.025 2.025 0 0 0-.841.046 2.027 2.027 0 0 0-.764.363c-.212.167-.376.37-.492.611a2.175 2.175 0 0 0-.201.824 3.29 3.29 0 0 0 .11 1c.09.359.218.668.38.93.163.262.352.47.57.625.217.154.458.255.722.299.266.045.547.029.844-.047.297-.076.55-.196.761-.362a1.69 1.69 0 0 0 .489-.607 2.15 2.15 0 0 0 .197-.82 3.369 3.369 0 0 0-.112-.998Zm4.125.996 2.333-.937.386.961-3.418 1.373-2.508-6.26 1.084-.434 2.123 5.297Zm3.789-3.461 1.263 2.311-1.024.562-3.236-5.915 1.68-.92c.375-.206.72-.341 1.032-.405.314-.064.596-.068.851-.012.253.056.477.167.672.33.195.165.36.373.497.624.11.2.184.402.227.609a1.884 1.884 0 0 1-.144 1.2 2.19 2.19 0 0 1-.373.544c.173.008.346.06.521.157l2.573 1.428-.92.506a.483.483 0 0 1-.258.067.544.544 0 0 1-.248-.078l-2.194-1.259a.48.48 0 0 0-.225-.072.534.534 0 0 0-.255.082l-.437.24-.003.001Zm-.433-.789.64-.35c.194-.106.347-.225.462-.356a.993.993 0 0 0 .267-.848c-.023-.15-.077-.3-.158-.45-.164-.3-.383-.481-.655-.54-.272-.06-.597.014-.976.222l-.654.359 1.074 1.963Zm8.915-5.786c.299.394.515.805.647 1.234.132.428.18.848.145 1.262a2.924 2.924 0 0 1-.364 1.181c-.207.374-.5.705-.877.992a3.18 3.18 0 0 1-1.192.58c-.416.101-.83.113-1.238.037a3.26 3.26 0 0 1-1.177-.478 3.971 3.971 0 0 1-1.013-.954 3.976 3.976 0 0 1-.647-1.234 3.295 3.295 0 0 1-.144-1.264c.037-.413.159-.809.367-1.184.208-.375.5-.706.88-.993.378-.287.774-.48 1.192-.578.416-.097.828-.11 1.233-.033.407.076.797.235 1.175.478.377.243.714.56 1.013.954Zm-.955.726a3.343 3.343 0 0 0-.71-.71 2.152 2.152 0 0 0-.766-.358 1.68 1.68 0 0 0-.781.003 2.02 2.02 0 0 0-.757.371 2.026 2.026 0 0 0-.562.632c-.13.236-.201.487-.214.754a2.14 2.14 0 0 0 .136.837 3.3 3.3 0 0 0 .49.877c.224.295.462.53.712.708.25.178.507.297.767.354.26.059.521.056.783-.007.26-.062.514-.186.758-.372a2.03 2.03 0 0 0 .56-.63c.13-.235.2-.484.214-.75a2.132 2.132 0 0 0-.138-.832c-.105-.29-.27-.58-.492-.875v-.002Zm6.003-3.348a.211.211 0 0 1 .173-.063l.705.045c.066.419.032.825-.098 1.217-.131.392-.378.776-.74 1.15a2.986 2.986 0 0 1-1.06.723c-.382.148-.774.21-1.176.185a3.174 3.174 0 0 1-1.204-.327c-.4-.193-.78-.466-1.14-.815a3.99 3.99 0 0 1-.832-1.139 3.228 3.228 0 0 1-.32-1.233c-.02-.417.048-.825.202-1.227.155-.402.398-.774.73-1.116.326-.335.668-.571 1.025-.709a2.822 2.822 0 0 1 1.081-.199l.146.688c.01.042.013.087.008.132a.235.235 0 0 1-.075.136.325.325 0 0 1-.203.088 2.204 2.204 0 0 0-.728.227 1.945 1.945 0 0 0-.494.389 1.984 1.984 0 0 0-.45.699 1.82 1.82 0 0 0-.106.788 2.2 2.2 0 0 0 .245.82c.14.277.343.544.605.799.272.264.548.463.83.598.28.135.553.21.817.23a1.727 1.727 0 0 0 1.39-.533 2.96 2.96 0 0 0 .28-.33 1.74 1.74 0 0 0 .186-.318c.047-.106.081-.216.103-.33.02-.113.033-.237.033-.37 0-.04.005-.078.015-.113a.205.205 0 0 1 .054-.092h-.001Zm.104-3.807.161-.22a.675.675 0 0 0 .123-.25.461.461 0 0 0-.015-.243l-.872-2.79a.64.64 0 0 1-.032-.308.69.69 0 0 1 .132-.277l.596-.813 1.005 3.365c.031.105.052.2.064.284a.824.824 0 0 1 0 .243.858.858 0 0 1 .28-.115c.1-.021.215-.03.343-.026l3.832.109-.612.834a.61.61 0 0 1-.235.214.513.513 0 0 1-.25.03l-3.056-.04c-.1 0-.186.015-.256.053a.713.713 0 0 0-.226.216l-.218.297 2.388 1.756-.691.942-5.433-3.992.69-.943 2.28 1.675h.002Z" fill="#fff" stroke="#fff" stroke-miterlimit="10"/><path d="M59.943 5.367c30.168 0 54.696 24.434 54.696 54.631 0 30.198-24.527 54.632-54.696 54.632-30.17 0-54.58-24.434-54.58-54.632 0-30.197 24.412-54.631 54.58-54.631Zm0-2.684c-7.735 0-15.237 1.515-22.299 4.5a57.014 57.014 0 0 0-18.2 12.277A57.065 57.065 0 0 0 7.18 37.678c-2.984 7.067-4.497 14.577-4.497 22.32 0 7.744 1.513 15.252 4.497 22.321a57.1 57.1 0 0 0 12.265 18.218 57.028 57.028 0 0 0 18.2 12.276c7.062 2.987 14.564 4.501 22.299 4.501 7.735 0 15.244-1.514 22.316-4.501a57.222 57.222 0 0 0 18.239-12.274 57.108 57.108 0 0 0 12.306-18.216c2.998-7.07 4.518-14.581 4.518-22.323 0-7.742-1.52-15.253-4.518-22.324a57.114 57.114 0 0 0-12.306-18.216 57.213 57.213 0 0 0-18.24-12.274c-7.072-2.986-14.58-4.5-22.316-4.5v-.003Z" fill="#FCD81C"/></svg>