<svg width="120" height="120" fill="none" xmlns="http://www.w3.org/2000/svg"><path d="M59.943 5.369c30.168 0 54.696 24.433 54.696 54.631s-24.527 54.631-54.696 54.631c-30.17 0-54.58-24.433-54.58-54.631S29.775 5.369 59.943 5.369Zm0-5.369C51.847 0 43.993 1.586 36.6 4.713a59.693 59.693 0 0 0-19.052 12.85A59.742 59.742 0 0 0 4.709 36.635C1.585 44.034 0 51.896 0 60s1.584 15.964 4.71 23.366a59.748 59.748 0 0 0 12.838 19.07A59.653 59.653 0 0 0 36.6 115.287C43.993 118.414 51.847 120 59.943 120s15.953-1.586 23.357-4.712a59.87 59.87 0 0 0 19.089-12.846 59.779 59.779 0 0 0 12.882-19.07C118.409 75.969 120 68.106 120 60s-1.591-15.967-4.729-23.373a59.791 59.791 0 0 0-12.882-19.069A59.85 59.85 0 0 0 83.3 4.712C75.896 1.586 68.037 0 59.943 0Z" fill="#A31E21"/><path d="M59.943 5.369c30.168 0 54.696 24.434 54.696 54.631 0 30.198-24.527 54.632-54.696 54.632-30.17 0-54.58-24.434-54.58-54.632 0-30.197 24.412-54.631 54.58-54.631Zm0-4.027c-7.915 0-15.593 1.55-22.82 4.607a58.37 58.37 0 0 0-18.627 12.564A58.412 58.412 0 0 0 5.944 37.156C2.89 44.391 1.342 52.076 1.342 60s1.55 15.608 4.602 22.843a58.4 58.4 0 0 0 12.552 18.643 58.337 58.337 0 0 0 18.627 12.563c7.228 3.057 14.905 4.607 22.82 4.607 7.915 0 15.599-1.55 22.836-4.607a58.544 58.544 0 0 0 18.664-12.56 58.436 58.436 0 0 0 12.593-18.642c3.068-7.238 4.623-14.925 4.623-22.849 0-7.923-1.556-15.61-4.623-22.847a58.448 58.448 0 0 0-12.593-18.643 58.542 58.542 0 0 0-18.664-12.56C75.542 2.89 67.858 1.34 59.943 1.34v.002Z" fill="#00519C"/><path d="M59.943 114.63c-30.168 0-54.58-24.434-54.58-54.631 0-30.198 24.412-54.632 54.58-54.632S114.639 29.801 114.639 60c0 30.197-24.527 54.631-54.696 54.631Z" fill="#231F20"/><path d="m29.748 22.229 1.004-.725 6.516 4.863.03-.02a23.37 23.37 0 0 0-.393-.462 19.648 19.648 0 0 1-.485-.583 36.66 36.66 0 0 1-1.316-1.725l-2.472-3.43 1.11-.801 6.777 9.405-1.014.733-6.386-4.706-.039.028c.128.16.27.329.425.509.155.181.332.398.534.649a57.744 57.744 0 0 1 1.596 2.113l1.992 2.764-1.1.794-6.778-9.405-.001-.001Zm7.652-4.986 3.357-1.634.605 1.246-1.983.966 1.516 3.121 1.533-.746.605 1.245-1.533.746 1.734 3.572 2.036-.992.606 1.246-3.41 1.66-5.068-10.428.002-.002Zm12.182 7.642c-.114.034-.25.061-.408.078a1.609 1.609 0 0 1-.52-.036 2.085 2.085 0 0 1-.59-.241 2.537 2.537 0 0 1-.617-.536 4.779 4.779 0 0 1-.605-.922 8.163 8.163 0 0 1-.55-1.398l-1.198-3.928a7.716 7.716 0 0 1-.32-1.468 4.372 4.372 0 0 1 .012-1.097c.049-.311.134-.573.257-.785.123-.213.263-.39.421-.53a2.12 2.12 0 0 1 .496-.332 3.56 3.56 0 0 1 .49-.193c.392-.12.74-.159 1.048-.117.306.041.576.143.809.305.233.163.43.377.59.64.16.263.289.555.387.876.072.238.128.461.164.67.038.208.072.44.104.695l-1.168.358-.16-.526c-.372-1.216-.841-1.738-1.41-1.563a.86.86 0 0 0-.371.213.727.727 0 0 0-.188.395c-.03.169-.028.377.01.626.037.25.109.552.218.907L48.018 22c.105.347.212.63.317.848.105.219.216.386.332.502a.703.703 0 0 0 .367.21c.129.025.27.014.424-.034a.662.662 0 0 0 .373-.274c.087-.133.143-.295.165-.487a2.449 2.449 0 0 0-.016-.648 5.044 5.044 0 0 0-.174-.764l-.442-1.448-.75.23-.338-1.105 2.172-.664 1.715 5.617-.97.296-.48-1.004c-.058.467-.18.828-.363 1.08a1.44 1.44 0 0 1-.767.529h-.001Zm2.991-12.706 1.648-.182c.188-.02.395-.034.622-.041.226-.007.456.012.689.057.232.046.461.126.685.242.224.116.43.287.62.512.19.226.352.516.49.872.138.357.237.796.294 1.318l.032.29c.096.876.066 1.604-.093 2.178-.159.575-.437 1.007-.836 1.297l2.112 4.433-1.607.176-1.804-4.166-.568.063.474 4.313-1.49.164-1.265-11.527h-.003Zm2.37 5.764c.266-.03.488-.088.664-.175a.936.936 0 0 0 .408-.39c.096-.172.154-.393.177-.662a5.324 5.324 0 0 0-.03-.984l-.1-.912a3.669 3.669 0 0 0-.155-.762 1.28 1.28 0 0 0-.296-.507.992.992 0 0 0-.476-.262 2.047 2.047 0 0 0-.703-.025l-.228.025.513 4.678.228-.026-.001.002Zm7.633 5.494a3.47 3.47 0 0 1-.52-.081 1.826 1.826 0 0 1-.545-.226 2.125 2.125 0 0 1-.504-.44 2.402 2.402 0 0 1-.404-.72 4.519 4.519 0 0 1-.241-1.076 8.25 8.25 0 0 1-.014-1.501l.288-4.098a7.995 7.995 0 0 1 .226-1.485 4.5 4.5 0 0 1 .394-1.02c.154-.272.322-.486.503-.641a1.955 1.955 0 0 1 1.13-.478 3.334 3.334 0 0 1 1.01.068 1.923 1.923 0 0 1 1.043.611c.161.178.298.411.412.702.113.293.196.65.246 1.074.051.423.056.93.015 1.521l-.288 4.098a7.61 7.61 0 0 1-.228 1.471 4.77 4.77 0 0 1-.397 1.028 2.383 2.383 0 0 1-.51.658 2.288 2.288 0 0 1-.565.368 1.83 1.83 0 0 1-.557.155 2.989 2.989 0 0 1-.492.014l-.002-.002Zm.094-1.32a.83.83 0 0 0 .397-.06.67.67 0 0 0 .299-.286 2.01 2.01 0 0 0 .205-.56c.055-.234.093-.533.119-.893l.37-5.263c.026-.37.028-.681.008-.932a2.18 2.18 0 0 0-.122-.611.71.71 0 0 0-.254-.342.774.774 0 0 0-.383-.123.815.815 0 0 0-.407.067.717.717 0 0 0-.306.301 2.066 2.066 0 0 0-.209.588 6.533 6.533 0 0 0-.121.923l-.37 5.264a5.855 5.855 0 0 0-.006.9c.02.24.062.434.128.585.064.15.152.258.261.325a.86.86 0 0 0 .393.116l-.002.001Z" fill="#fff" stroke="#fff" stroke-miterlimit="10"/><path d="M59.964 94.098c-18.83 0-34.066-15.251-34.066-34.099s15.237-34.1 34.066-34.1c18.83 0 34.139 15.252 34.139 34.1s-15.31 34.1-34.139 34.1Z" fill="#202426"/><path d="M98.67 48.602c-1.378-4.82-8.008-6.792-19.858-5.91-8.038.566-15.639 1.928-22.754 4.066-7.142 2.112-14.208 5.142-21.224 9.089-10.332 5.742-14.78 10.999-13.326 15.776 1.436 4.776 8.014 6.714 19.792 5.85 8.086-.579 15.637-1.921 22.628-3.996 7.113-2.114 14.176-5.12 21.237-9.04 10.364-5.835 14.891-11.109 13.505-15.834v-.001Z" fill="#D4DAEC"/><path d="M98.744 49.007c-1.324-4.835-7.93-6.881-19.792-6.131-8.042.475-15.658 1.752-22.797 3.81-7.167 2.03-14.264 4.982-21.324 8.85-10.396 5.627-14.903 10.832-13.503 15.626 1.382 4.792 7.94 6.803 19.726 6.072 8.092-.49 15.658-1.746 22.672-3.743 7.136-2.034 14.232-4.962 21.337-8.802 10.428-5.72 15.015-10.943 13.681-15.682Zm-17.473 5.022c.73 2.607-1.67 5.434-7.197 8.476a59.89 59.89 0 0 1-12.063 4.933 58.237 58.237 0 0 1-12.803 2.173c-6.272.332-9.776-.82-10.529-3.435-.73-2.607 1.639-5.413 7.141-8.45a57.858 57.858 0 0 1 12.066-4.962 58.654 58.654 0 0 1 12.85-2.17c6.28-.357 9.803.798 10.536 3.434l-.001.001Zm-9.728 2.766c-1.012-3.55-5.377-4.209-13.099-2.005-7.72 2.205-11.064 5.1-10.069 8.642 1.02 3.526 5.355 4.182 13.077 1.978 7.723-2.205 11.084-5.067 10.091-8.616v.001Zm-5.445 25.012c-8.282 2.353-18.043 3.313-29.332 2.906-14.787-.502-23.162-4.082-25.107-10.78-2.256-7.735 2.521-15.387 14.299-22.987 8.388-5.529 17.67-9.746 27.8-12.65 8.333-2.396 18.246-3.396 29.69-3.023 14.84.505 23.202 4.163 25.067 10.949 1.868 6.758-3.384 14.27-15.741 22.536-9.498 6.325-18.396 10.697-26.678 13.05l.002-.001Z" fill="#090E35"/><path d="m53.248 100.569-.238 1.003-1.838-.437-1.32 5.559-1.136-.271 1.32-5.559-1.845-.439.238-1.002 4.82 1.146Zm1.265 4.282-.277 2.62-1.161-.123.71-6.706 1.904.203c.427.045.786.131 1.08.258.294.126.528.285.706.475.176.191.297.408.362.655.066.246.083.511.054.796a2.162 2.162 0 0 1-.162.63 1.913 1.913 0 0 1-.325.519 1.89 1.89 0 0 1-.477.386c-.184.105-.39.184-.616.235.137.105.25.247.338.426l1.3 2.642-1.045-.11a.497.497 0 0 1-.25-.092.55.55 0 0 1-.16-.205l-1.086-2.286a.464.464 0 0 0-.144-.188.537.537 0 0 0-.256-.079l-.496-.052.001-.004Zm.095-.896.725.078c.219.022.412.014.582-.027.169-.042.31-.108.428-.202a.988.988 0 0 0 .274-.343c.067-.136.11-.289.128-.46.036-.341-.04-.613-.229-.817-.19-.204-.499-.33-.928-.375l-.743-.079-.236 2.226-.001-.001Zm5.964 3.886-1.172-.005.03-6.744 1.171.006-.03 6.743Zm6.112-2.016a.212.212 0 0 1 .172.063l.51.489c-.22.363-.506.651-.858.867-.352.216-.788.35-1.307.402a2.95 2.95 0 0 1-1.276-.131 2.786 2.786 0 0 1-1.019-.615 3.18 3.18 0 0 1-.71-1.027 4.371 4.371 0 0 1-.347-1.357 3.94 3.94 0 0 1 .096-1.408c.113-.435.297-.817.55-1.15.251-.332.566-.6.942-.809a3.33 3.33 0 0 1 1.277-.383c.464-.045.878-.006 1.24.118.363.125.682.307.955.544l-.33.618a.396.396 0 0 1-.08.107.228.228 0 0 1-.145.056.324.324 0 0 1-.21-.062 2.253 2.253 0 0 0-.282-.155 1.964 1.964 0 0 0-.421-.14 1.935 1.935 0 0 0-.628-.022c-.293.03-.559.111-.793.246a1.816 1.816 0 0 0-.588.534 2.196 2.196 0 0 0-.342.786 3.03 3.03 0 0 0-.05 1.001c.037.378.12.709.249.992.128.284.288.518.477.702a1.74 1.74 0 0 0 1.406.487c.158-.016.3-.039.426-.071a1.609 1.609 0 0 0 .637-.308c.091-.072.18-.16.265-.263a.433.433 0 0 1 .084-.076.221.221 0 0 1 .101-.036l-.001.001Zm7.314-3.488c.121.48.16.943.114 1.389a3.319 3.319 0 0 1-.357 1.22 2.918 2.918 0 0 1-.795.945 3.189 3.189 0 0 1-1.194.571c-.46.117-.902.14-1.324.069a2.924 2.924 0 0 1-1.154-.45 3.28 3.28 0 0 1-.898-.899 3.984 3.984 0 0 1-.562-1.275 3.985 3.985 0 0 1-.114-1.388c.045-.446.165-.853.36-1.22.194-.367.461-.684.798-.947a3.195 3.195 0 0 1 1.196-.57c.46-.118.902-.14 1.323-.068.421.073.805.223 1.15.452.345.228.642.527.895.898.254.371.439.795.562 1.275v-.002Zm-1.162.295a3.363 3.363 0 0 0-.377-.931 2.143 2.143 0 0 0-.565-.629 1.705 1.705 0 0 0-.72-.303 2.041 2.041 0 0 0-.842.045 2.043 2.043 0 0 0-.764.363 1.71 1.71 0 0 0-.492.612 2.165 2.165 0 0 0-.201.823 3.32 3.32 0 0 0 .11.999c.091.359.218.668.38.93s.353.471.569.625c.217.155.458.255.724.299.265.045.546.029.844-.047.297-.076.55-.196.761-.362.21-.165.373-.368.488-.607.116-.239.181-.513.197-.82a3.365 3.365 0 0 0-.112-.998v.001Zm4.126.998 2.333-.937.385.961-3.417 1.372-2.508-6.259 1.084-.435 2.123 5.298Zm3.788-3.462 1.264 2.311-1.024.562-3.236-5.915 1.679-.92c.376-.206.72-.341 1.033-.405.313-.064.596-.068.85-.012.254.056.478.167.673.33.194.165.36.373.497.624.11.199.184.402.227.609a1.886 1.886 0 0 1-.144 1.201 2.214 2.214 0 0 1-.374.545c.174.008.347.06.522.156l2.573 1.428-.921.506a.483.483 0 0 1-.258.067.544.544 0 0 1-.248-.078l-2.193-1.258a.488.488 0 0 0-.225-.074.532.532 0 0 0-.255.082l-.437.24-.003.001Zm-.432-.789.64-.35c.193-.106.347-.225.461-.356.115-.13.195-.267.238-.408a.994.994 0 0 0 .029-.44c-.023-.15-.076-.3-.157-.45-.164-.3-.383-.481-.655-.54-.272-.06-.597.014-.976.222l-.655.359 1.075 1.963Zm8.915-5.786c.299.394.515.805.647 1.233.132.429.18.85.145 1.263a2.91 2.91 0 0 1-.364 1.181c-.207.374-.5.705-.877.992a3.21 3.21 0 0 1-1.192.58c-.416.101-.83.113-1.238.037a3.26 3.26 0 0 1-1.177-.478 3.994 3.994 0 0 1-1.013-.954 4.004 4.004 0 0 1-.647-1.234 3.294 3.294 0 0 1-.144-1.264 2.95 2.95 0 0 1 .367-1.184c.208-.375.5-.706.88-.993.377-.287.774-.48 1.192-.578.416-.097.828-.11 1.233-.033.407.076.797.235 1.175.478.376.243.714.56 1.013.954Zm-.955.726a3.345 3.345 0 0 0-.71-.71 2.149 2.149 0 0 0-.766-.358c-.26-.06-.52-.058-.781.003a2 2 0 0 0-.757.371 2.028 2.028 0 0 0-.562.632c-.13.236-.201.487-.214.755a2.14 2.14 0 0 0 .136.837 3.3 3.3 0 0 0 .49.877c.224.295.462.531.712.709.251.177.507.296.767.353.26.06.521.056.783-.006a2 2 0 0 0 .758-.373 2.02 2.02 0 0 0 .56-.63c.13-.235.2-.484.214-.75a2.142 2.142 0 0 0-.138-.833c-.105-.29-.27-.58-.492-.875v-.002Zm6.005-3.347a.212.212 0 0 1 .172-.063l.705.044c.066.42.032.825-.099 1.217-.13.393-.377.776-.74 1.15a2.985 2.985 0 0 1-1.06.723c-.38.148-.773.21-1.175.186a3.175 3.175 0 0 1-1.204-.327c-.4-.195-.78-.466-1.14-.816a3.99 3.99 0 0 1-.833-1.138 3.227 3.227 0 0 1-.318-1.234 2.98 2.98 0 0 1 .201-1.227c.155-.401.397-.774.73-1.115.326-.335.667-.572 1.025-.71a2.825 2.825 0 0 1 1.081-.198l.144.686c.01.043.013.087.008.132a.234.234 0 0 1-.075.136.324.324 0 0 1-.202.088 2.199 2.199 0 0 0-.728.227 1.977 1.977 0 0 0-.495.389 1.986 1.986 0 0 0-.45.7 1.817 1.817 0 0 0-.106.787c.023.27.104.544.245.82.142.277.343.544.606.799.272.264.548.464.83.598.28.135.552.21.817.228a1.726 1.726 0 0 0 1.389-.532c.11-.115.205-.225.281-.33a1.74 1.74 0 0 0 .186-.318 1.5 1.5 0 0 0 .102-.33c.023-.113.033-.237.033-.37 0-.04.006-.078.015-.113a.217.217 0 0 1 .055-.092v.003Zm.101-3.807.162-.22a.675.675 0 0 0 .122-.25.449.449 0 0 0-.016-.243l-.871-2.79a.64.64 0 0 1-.033-.308.69.69 0 0 1 .132-.277l.596-.813 1.006 3.365c.03.105.052.2.063.284a.824.824 0 0 1 0 .243.857.857 0 0 1 .28-.115c.1-.021.214-.03.342-.026l3.832.109-.612.834a.61.61 0 0 1-.234.214.494.494 0 0 1-.25.03l-3.056-.04c-.1 0-.185.016-.256.054a.727.727 0 0 0-.225.216l-.219.298 2.388 1.755-.69.942-5.434-3.992.69-.942 2.28 1.675.003-.003Z" fill="#fff" stroke="#fff" stroke-miterlimit="10"/><path d="M59.943 5.369c30.168 0 54.696 24.434 54.696 54.631 0 30.198-24.527 54.632-54.696 54.632-30.17 0-54.58-24.434-54.58-54.632 0-30.197 24.412-54.631 54.58-54.631Zm0-2.684c-7.735 0-15.237 1.515-22.299 4.5a57.013 57.013 0 0 0-18.2 12.277A57.065 57.065 0 0 0 7.18 37.679C4.195 44.747 2.682 52.257 2.682 60c0 7.743 1.513 15.252 4.497 22.321a57.1 57.1 0 0 0 12.265 18.218 57.028 57.028 0 0 0 18.2 12.276c7.062 2.987 14.564 4.501 22.299 4.501 7.735 0 15.244-1.514 22.316-4.501a57.238 57.238 0 0 0 18.239-12.274 57.108 57.108 0 0 0 12.306-18.216c2.998-7.07 4.518-14.582 4.518-22.323 0-7.742-1.52-15.253-4.518-22.324a57.113 57.113 0 0 0-12.306-18.216A57.238 57.238 0 0 0 82.259 7.187C75.187 4.2 67.679 2.686 59.943 2.686v-.001Z" fill="#FCD81C"/></svg>