<svg width="120" height="120" fill="none" xmlns="http://www.w3.org/2000/svg"><path d="M59.943 5.367c30.168 0 54.696 24.434 54.696 54.632 0 30.197-24.527 54.631-54.696 54.631-30.17 0-54.58-24.434-54.58-54.631 0-30.198 24.412-54.632 54.58-54.632Zm0-5.367C51.847 0 43.993 1.586 36.6 4.713a59.693 59.693 0 0 0-19.052 12.85A59.743 59.743 0 0 0 4.709 36.635C1.585 44.034 0 51.896 0 60s1.584 15.964 4.71 23.366a59.75 59.75 0 0 0 12.838 19.07A59.653 59.653 0 0 0 36.6 115.287C43.993 118.414 51.847 120 59.943 120s15.953-1.586 23.357-4.712a59.87 59.87 0 0 0 19.089-12.846 59.779 59.779 0 0 0 12.882-19.07C118.409 75.969 120 68.106 120 60s-1.591-15.967-4.729-23.373a59.791 59.791 0 0 0-12.882-19.069A59.85 59.85 0 0 0 83.3 4.712C75.896 1.586 68.037 0 59.943 0Z" fill="#A31E21"/><path d="M59.943 5.367c30.168 0 54.696 24.434 54.696 54.631 0 30.198-24.526 54.632-54.696 54.632-30.17 0-54.58-24.434-54.58-54.631 0-30.198 24.412-54.632 54.58-54.632Zm0-4.026c-7.914 0-15.593 1.55-22.82 4.608a58.37 58.37 0 0 0-18.626 12.563A58.41 58.41 0 0 0 5.944 37.156C2.89 44.39 1.342 52.075 1.342 59.999c0 7.923 1.55 15.607 4.602 22.842a58.403 58.403 0 0 0 12.553 18.644 58.351 58.351 0 0 0 18.626 12.563c7.228 3.057 14.906 4.608 22.82 4.608 7.915 0 15.599-1.55 22.836-4.607a58.544 58.544 0 0 0 18.664-12.56 58.438 58.438 0 0 0 12.593-18.642c3.068-7.238 4.623-14.925 4.623-22.848 0-7.924-1.556-15.611-4.623-22.849a58.447 58.447 0 0 0-12.593-18.642 58.542 58.542 0 0 0-18.664-12.56C75.542 2.89 67.858 1.34 59.943 1.34Z" fill="#00519C"/><path d="M59.943 114.63c-30.168 0-54.58-24.434-54.58-54.631 0-30.198 24.412-54.632 54.58-54.632S114.639 29.801 114.639 60c0 30.197-24.527 54.631-54.696 54.631Z" fill="#620810"/><path d="m33.393 19.584 1.425-.848c.163-.096.346-.194.55-.295.204-.1.42-.177.65-.232.231-.055.472-.076.724-.063.252.014.511.083.776.21.266.127.534.324.807.59.272.267.543.626.81 1.077l.15.251c.45.76.723 1.434.816 2.022.093.589.019 1.099-.225 1.529l3.754 3.16-1.389.827-3.364-3.046-.492.292 2.213 3.73-1.288.767-5.914-9.971h-.003Zm4.54 4.265c.23-.136.407-.282.53-.434a.935.935 0 0 0 .211-.525 1.637 1.637 0 0 0-.112-.675 5.262 5.262 0 0 0-.434-.882l-.468-.788a3.554 3.554 0 0 0-.456-.629 1.274 1.274 0 0 0-.479-.339 1 1 0 0 0-.543-.041 2.04 2.04 0 0 0-.65.268l-.198.118 2.4 4.046.198-.118.001-.001Zm9.236 1.834a3.33 3.33 0 0 1-.507.142 1.845 1.845 0 0 1-.59.02 2.071 2.071 0 0 1-.642-.191 2.438 2.438 0 0 1-.666-.486 4.541 4.541 0 0 1-.665-.88 8.214 8.214 0 0 1-.633-1.361l-1.433-3.849a8 8 0 0 1-.41-1.444 4.428 4.428 0 0 1-.063-1.092c.026-.312.09-.576.191-.793a1.94 1.94 0 0 1 .83-.904c.165-.09.32-.162.468-.217.14-.052.3-.099.48-.139.18-.04.37-.053.57-.038.2.014.411.069.631.162.22.095.442.251.666.469.224.219.446.51.667.873.222.364.436.824.643 1.38l1.433 3.848c.2.54.335 1.018.402 1.434.067.416.088.784.064 1.1a2.41 2.41 0 0 1-.192.81 2.28 2.28 0 0 1-.362.57 1.85 1.85 0 0 1-.444.372 2.906 2.906 0 0 1-.442.217l.004-.003Zm-.463-1.24a.821.821 0 0 0 .336-.22.669.669 0 0 0 .154-.383 1.99 1.99 0 0 0-.046-.596 5.904 5.904 0 0 0-.261-.862l-1.842-4.943a6.428 6.428 0 0 0-.377-.851 2.182 2.182 0 0 0-.364-.506.698.698 0 0 0-.372-.206.79.79 0 0 0-.401.048.818.818 0 0 0-.343.23.702.702 0 0 0-.152.402c-.017.168 0 .375.052.622s.143.543.272.891l1.841 4.943c.127.34.248.614.367.824.119.21.237.37.358.479.12.11.244.172.372.187a.856.856 0 0 0 .406-.058Zm5.967-.34c-.37.072-.695.065-.97-.019a1.665 1.665 0 0 1-.712-.426 2.36 2.36 0 0 1-.482-.74 4.704 4.704 0 0 1-.287-.954 10.62 10.62 0 0 1-.17-1.745l1.2-.232.25 1.39c.057.294.116.537.177.73.062.194.128.345.2.453a.55.55 0 0 0 .234.217.485.485 0 0 0 .29.024.488.488 0 0 0 .227-.106.478.478 0 0 0 .141-.246 1.47 1.47 0 0 0 .038-.429 4.294 4.294 0 0 0-.084-.651l-1.698-8.868 1.5-.291 1.668 8.625c.114.586.148 1.077.106 1.474-.043.396-.143.718-.296.966-.155.25-.348.437-.582.562a2.649 2.649 0 0 1-.75.267v-.001Zm6.528-.748a3.352 3.352 0 0 1-.525-.032 1.844 1.844 0 0 1-.564-.174 2.11 2.11 0 0 1-.543-.39 2.428 2.428 0 0 1-.469-.679 4.5 4.5 0 0 1-.34-1.048 8.25 8.25 0 0 1-.152-1.493l-.095-4.108a8.004 8.004 0 0 1 .087-1.498c.07-.417.17-.768.297-1.054a2.34 2.34 0 0 1 .442-.686 1.964 1.964 0 0 1 1.081-.58 3.52 3.52 0 0 1 .512-.053c.15-.004.316.006.499.026.184.021.368.07.552.15.185.08.365.2.542.361.178.162.335.382.475.662.14.28.256.629.345 1.045.091.417.143.921.156 1.515l.095 4.108a7.657 7.657 0 0 1-.09 1.485 4.716 4.716 0 0 1-.3 1.06 2.39 2.39 0 0 1-.446.703 2.26 2.26 0 0 1-.527.42 1.8 1.8 0 0 1-.541.205c-.18.036-.343.055-.488.059l-.003-.004Zm-.03-1.323a.836.836 0 0 0 .389-.097c.11-.062.2-.166.27-.313.071-.146.12-.339.153-.576a5.84 5.84 0 0 0 .034-.901l-.121-5.274a6.421 6.421 0 0 0-.077-.93 2.136 2.136 0 0 0-.179-.596.708.708 0 0 0-.284-.316.772.772 0 0 0-.395-.086.823.823 0 0 0-.398.104.722.722 0 0 0-.276.329 2.067 2.067 0 0 0-.155.604c-.032.25-.043.561-.035.932l.122 5.274c.008.362.033.662.077.898.043.238.103.428.181.57a.671.671 0 0 0 .291.3.86.86 0 0 0 .403.078Z" fill="#fff" stroke="#E2E3E4" stroke-miterlimit="10"/><path d="M59.964 94.098c-18.83 0-34.066-15.251-34.066-34.099s15.237-34.1 34.066-34.1c18.83 0 34.139 15.252 34.139 34.1s-15.31 34.1-34.139 34.1Z" fill="#43000C"/><path d="M98.67 48.602c-1.378-4.82-8.008-6.792-19.858-5.91-8.038.566-15.639 1.928-22.754 4.066-7.142 2.112-14.208 5.142-21.224 9.089-10.332 5.742-14.78 10.999-13.326 15.776 1.436 4.776 8.014 6.714 19.792 5.85 8.086-.579 15.637-1.921 22.628-3.996 7.113-2.114 14.176-5.12 21.237-9.04 10.364-5.835 14.891-11.109 13.505-15.834v-.001Z" fill="#D4DAEC"/><path d="M98.744 49.007c-1.324-4.835-7.93-6.881-19.792-6.131-8.042.475-15.658 1.752-22.797 3.81-7.167 2.03-14.264 4.982-21.324 8.85-10.396 5.627-14.903 10.832-13.503 15.626 1.382 4.792 7.94 6.803 19.726 6.072 8.092-.49 15.658-1.746 22.672-3.743 7.136-2.034 14.232-4.962 21.337-8.802 10.428-5.72 15.015-10.943 13.681-15.682Zm-17.473 5.021c.73 2.607-1.67 5.434-7.197 8.476a59.891 59.891 0 0 1-12.063 4.932 58.231 58.231 0 0 1-12.803 2.173c-6.272.333-9.776-.82-10.529-3.434-.73-2.607 1.639-5.413 7.141-8.45a57.863 57.863 0 0 1 12.066-4.962 58.662 58.662 0 0 1 12.85-2.17c6.28-.356 9.803.797 10.536 3.434v.001Zm-9.728 2.766c-1.012-3.55-5.377-4.209-13.099-2.005-7.72 2.205-11.064 5.099-10.069 8.642 1.02 3.526 5.355 4.181 13.077 1.978 7.723-2.205 11.084-5.067 10.091-8.617v.002Zm-5.445 25.013c-8.282 2.353-18.043 3.313-29.332 2.906-14.787-.502-23.162-4.082-25.107-10.78-2.256-7.735 2.521-15.387 14.299-22.987 8.388-5.529 17.67-9.746 27.8-12.65 8.333-2.396 18.246-3.396 29.69-3.023 14.84.505 23.202 4.163 25.067 10.949 1.868 6.758-3.384 14.27-15.741 22.536-9.498 6.325-18.396 10.697-26.678 13.05l.002-.001Z" fill="#090E35"/><path d="m53.248 100.568-.238 1.002-1.838-.437-1.32 5.558-1.136-.271 1.32-5.558-1.845-.44.239-1.002 4.82 1.147-.002.001Zm1.264 4.282-.277 2.621-1.162-.123.71-6.706 1.905.201c.425.046.785.131 1.08.258.293.127.528.284.705.475.176.191.298.408.363.655.065.247.083.512.053.796a2.154 2.154 0 0 1-.161.63 1.871 1.871 0 0 1-.803.905c-.184.105-.39.184-.616.235.138.105.25.247.339.426l1.3 2.643-1.045-.111a.497.497 0 0 1-.251-.092.569.569 0 0 1-.16-.204l-1.085-2.287a.471.471 0 0 0-.144-.188.542.542 0 0 0-.256-.079l-.496-.052v-.003Zm.096-.895.725.077c.219.024.412.015.582-.027.169-.041.31-.108.428-.201a.986.986 0 0 0 .274-.343c.067-.136.11-.29.128-.461.036-.34-.04-.612-.23-.817-.188-.204-.498-.329-.927-.375l-.743-.079-.236 2.227-.001-.001Zm5.964 3.885-1.172-.006.03-6.743 1.171.005-.03 6.744Zm6.112-2.014a.211.211 0 0 1 .172.062l.51.489a2.56 2.56 0 0 1-.858.867c-.352.217-.788.35-1.305.402a2.95 2.95 0 0 1-1.276-.131 2.786 2.786 0 0 1-1.019-.615 3.188 3.188 0 0 1-.71-1.026 4.385 4.385 0 0 1-.347-1.358 3.97 3.97 0 0 1 .096-1.408 3.23 3.23 0 0 1 .549-1.149c.252-.331.567-.601.943-.808a3.296 3.296 0 0 1 1.277-.383c.464-.047.877-.007 1.24.117.363.125.681.306.955.545l-.332.618a.383.383 0 0 1-.079.107.228.228 0 0 1-.145.056.325.325 0 0 1-.211-.063 2.082 2.082 0 0 0-.703-.295 1.938 1.938 0 0 0-.628-.021 1.975 1.975 0 0 0-.793.245 1.813 1.813 0 0 0-.588.534c-.157.222-.27.484-.341.787a3.03 3.03 0 0 0-.051 1.001c.037.377.12.707.25.991.127.285.287.518.477.703a1.737 1.737 0 0 0 1.405.487c.159-.016.301-.039.427-.071a1.558 1.558 0 0 0 .636-.31c.09-.073.178-.16.264-.263a.465.465 0 0 1 .084-.076.22.22 0 0 1 .101-.036v.002Zm7.313-3.489c.122.479.16.942.115 1.388a3.299 3.299 0 0 1-.357 1.219 2.931 2.931 0 0 1-.795.946 3.188 3.188 0 0 1-1.195.571 3.17 3.17 0 0 1-1.324.07 2.939 2.939 0 0 1-1.153-.45 3.297 3.297 0 0 1-.899-.9 3.968 3.968 0 0 1-.56-1.274 3.958 3.958 0 0 1-.116-1.389c.046-.445.166-.853.36-1.22.195-.367.462-.682.8-.946a3.195 3.195 0 0 1 1.195-.571 3.13 3.13 0 0 1 1.323-.067 2.96 2.96 0 0 1 1.15.451c.344.228.642.527.895.898a4 4 0 0 1 .561 1.274Zm-1.16.295a3.373 3.373 0 0 0-.378-.932 2.163 2.163 0 0 0-.566-.629 1.717 1.717 0 0 0-.72-.303 2.025 2.025 0 0 0-.84.046 2.027 2.027 0 0 0-.765.363c-.212.167-.376.37-.492.611a2.166 2.166 0 0 0-.201.824 3.29 3.29 0 0 0 .11 1c.091.359.218.668.38.93.163.262.352.47.568.625.216.154.46.255.724.299.266.044.547.029.844-.047a2.02 2.02 0 0 0 .762-.362 1.69 1.69 0 0 0 .488-.607c.116-.239.181-.513.197-.82a3.369 3.369 0 0 0-.112-.998Zm4.124.996 2.333-.937.386.961-3.418 1.373-2.508-6.26 1.084-.434 2.123 5.297Zm3.789-3.46 1.264 2.31-1.024.562-3.236-5.914 1.679-.921a3.79 3.79 0 0 1 1.033-.405c.313-.064.597-.066.85-.012.254.056.478.167.673.331.194.164.36.373.497.624.11.199.184.401.227.61a1.883 1.883 0 0 1-.144 1.2 2.212 2.212 0 0 1-.374.544c.174.008.347.06.522.156l2.573 1.429-.921.506a.481.481 0 0 1-.506-.011l-2.193-1.259a.484.484 0 0 0-.225-.073.534.534 0 0 0-.255.081l-.437.24-.003.002Zm-.432-.79.64-.35c.193-.106.347-.224.463-.354a.994.994 0 0 0 .265-.848c-.023-.15-.076-.3-.157-.45-.164-.301-.383-.481-.655-.54-.272-.06-.597.013-.976.222l-.655.359 1.075 1.963v-.001Zm8.914-5.786c.3.394.515.805.647 1.234.132.428.181.848.145 1.262a2.924 2.924 0 0 1-.364 1.181c-.206.374-.5.705-.877.992a3.21 3.21 0 0 1-1.192.58c-.416.101-.83.113-1.237.037a3.259 3.259 0 0 1-1.178-.478 3.993 3.993 0 0 1-1.013-.954 3.976 3.976 0 0 1-.647-1.234 3.295 3.295 0 0 1-.144-1.264c.036-.413.16-.809.367-1.184a3.19 3.19 0 0 1 .879-.993c.377-.287.774-.48 1.192-.578.416-.097.828-.11 1.233-.033.407.076.797.235 1.175.478.376.243.714.56 1.013.954h.001Zm-.953.726a3.343 3.343 0 0 0-.71-.71 2.179 2.179 0 0 0-.766-.359 1.69 1.69 0 0 0-.781.003 2.02 2.02 0 0 0-.758.37 2.018 2.018 0 0 0-.56.633 1.712 1.712 0 0 0-.216.755 2.16 2.16 0 0 0 .136.837c.104.29.267.582.491.877.224.295.461.53.712.708.25.178.507.297.767.354.26.058.521.056.782-.007.262-.062.515-.186.76-.372.243-.185.43-.396.56-.631.128-.235.2-.485.212-.75a2.132 2.132 0 0 0-.137-.832c-.105-.29-.27-.58-.492-.876Zm6.002-3.348a.211.211 0 0 1 .172-.062l.706.044c.065.42.032.825-.099 1.218-.13.392-.377.775-.74 1.149a2.985 2.985 0 0 1-1.06.723c-.381.148-.773.21-1.176.186a3.168 3.168 0 0 1-1.204-.327c-.4-.194-.78-.466-1.139-.814a3.993 3.993 0 0 1-.833-1.139 3.228 3.228 0 0 1-.319-1.233c-.02-.417.047-.825.202-1.227.154-.402.398-.773.73-1.116.326-.335.667-.571 1.024-.709a2.849 2.849 0 0 1 1.082-.199l.145.686c.01.043.013.087.008.133a.24.24 0 0 1-.075.137.324.324 0 0 1-.202.088c-.088.01-.194.032-.315.063-.121.03-.259.085-.413.164a1.974 1.974 0 0 0-.495.389 1.986 1.986 0 0 0-.45.699 1.82 1.82 0 0 0-.106.788 2.2 2.2 0 0 0 .245.82c.142.277.343.544.606.799.272.264.548.464.83.598.28.133.552.21.816.23a1.726 1.726 0 0 0 1.39-.533 2.97 2.97 0 0 0 .281-.33 1.71 1.71 0 0 0 .185-.318 1.52 1.52 0 0 0 .103-.33c.023-.114.033-.237.033-.37 0-.04.006-.078.015-.113a.204.204 0 0 1 .055-.092l-.002-.001Zm.103-3.807.161-.22a.684.684 0 0 0 .123-.25.45.45 0 0 0-.016-.243l-.872-2.79a.64.64 0 0 1-.032-.308.69.69 0 0 1 .132-.277l.596-.813 1.005 3.365c.03.105.052.2.063.284a.824.824 0 0 1 0 .243.858.858 0 0 1 .28-.115c.1-.021.214-.03.342-.025l3.832.11-.61.834a.61.61 0 0 1-.235.213.492.492 0 0 1-.25.03l-3.055-.04c-.1 0-.186.017-.256.054a.717.717 0 0 0-.226.218l-.218.297 2.388 1.756-.691.942-5.433-3.992.69-.943 2.28 1.675.002-.005Z" fill="#fff" stroke="#fff" stroke-miterlimit="10"/><path d="M59.943 5.367c30.168 0 54.696 24.434 54.696 54.631 0 30.198-24.527 54.632-54.696 54.632-30.17 0-54.58-24.434-54.58-54.632 0-30.197 24.412-54.631 54.58-54.631Zm0-2.684c-7.735 0-15.237 1.515-22.299 4.5a57.014 57.014 0 0 0-18.2 12.277A57.065 57.065 0 0 0 7.18 37.678c-2.984 7.067-4.497 14.577-4.497 22.32 0 7.744 1.513 15.252 4.497 22.321a57.1 57.1 0 0 0 12.265 18.218 57.028 57.028 0 0 0 18.2 12.276c7.062 2.987 14.564 4.501 22.299 4.501 7.735 0 15.244-1.514 22.316-4.501a57.222 57.222 0 0 0 18.239-12.274 57.108 57.108 0 0 0 12.306-18.216c2.998-7.07 4.518-14.581 4.518-22.323 0-7.742-1.52-15.253-4.518-22.324a57.114 57.114 0 0 0-12.306-18.216 57.213 57.213 0 0 0-18.24-12.274c-7.072-2.986-14.58-4.5-22.316-4.5v-.003Z" fill="#FCD81C"/></svg>