<svg width="120" height="120" fill="none" xmlns="http://www.w3.org/2000/svg"><path d="M59.943 5.367c30.168 0 54.696 24.434 54.696 54.632 0 30.197-24.527 54.631-54.696 54.631-30.17 0-54.58-24.434-54.58-54.631 0-30.198 24.412-54.632 54.58-54.632Zm0-5.367C51.847 0 43.993 1.586 36.6 4.713a59.693 59.693 0 0 0-19.052 12.85A59.742 59.742 0 0 0 4.709 36.635C1.585 44.034 0 51.896 0 60s1.584 15.964 4.71 23.366a59.748 59.748 0 0 0 12.838 19.07A59.653 59.653 0 0 0 36.6 115.287C43.993 118.414 51.847 120 59.943 120s15.953-1.586 23.357-4.712a59.87 59.87 0 0 0 19.089-12.846 59.779 59.779 0 0 0 12.882-19.07C118.409 75.969 120 68.106 120 60s-1.591-15.967-4.729-23.373a59.791 59.791 0 0 0-12.882-19.069A59.85 59.85 0 0 0 83.3 4.712C75.896 1.586 68.037 0 59.943 0Z" fill="#A31E21"/><path d="M59.943 5.367c30.168 0 54.696 24.434 54.696 54.631 0 30.198-24.527 54.632-54.696 54.632-30.17 0-54.58-24.434-54.58-54.631 0-30.198 24.412-54.632 54.58-54.632Zm0-4.026c-7.915 0-15.593 1.55-22.82 4.608a58.37 58.37 0 0 0-18.626 12.563A58.41 58.41 0 0 0 5.944 37.156C2.89 44.39 1.342 52.075 1.342 59.999c0 7.923 1.55 15.607 4.602 22.842a58.403 58.403 0 0 0 12.553 18.644 58.353 58.353 0 0 0 18.626 12.563c7.228 3.057 14.905 4.608 22.82 4.608 7.915 0 15.599-1.55 22.836-4.607a58.544 58.544 0 0 0 18.664-12.56 58.438 58.438 0 0 0 12.593-18.642c3.068-7.238 4.623-14.925 4.623-22.848 0-7.924-1.556-15.611-4.623-22.849a58.447 58.447 0 0 0-12.593-18.642 58.542 58.542 0 0 0-18.664-12.56C75.542 2.89 67.858 1.34 59.943 1.34Z" fill="#00519C"/><path d="M59.943 114.63c-30.168 0-54.58-24.434-54.58-54.631 0-30.198 24.412-54.632 54.58-54.632S114.639 29.801 114.639 60c0 30.197-24.527 54.631-54.696 54.631Z" fill="#A8509F"/><path d="m25.168 26.402 1.144-1.065 7.06 5.972.048-.044-5.432-7.489 1.14-1.06 6.544 9.742-1.279 1.19-9.227-7.246h.002Zm6.88-5.842 1.26-.865 6.552 9.564-1.26.865-6.552-9.564Zm12.037 6.435a3.352 3.352 0 0 1-.492.188 1.86 1.86 0 0 1-.585.075 2.1 2.1 0 0 1-.656-.132 2.424 2.424 0 0 1-.708-.424 4.52 4.52 0 0 1-.741-.815 8.213 8.213 0 0 1-.755-1.297l-1.779-3.702a7.918 7.918 0 0 1-.54-1.401 4.434 4.434 0 0 1-.162-1.083 2.33 2.33 0 0 1 .118-.807 1.961 1.961 0 0 1 .745-.977c.155-.106.303-.191.446-.26.135-.065.29-.126.465-.183a1.936 1.936 0 0 1 1.208.013c.228.073.463.21.706.406.242.197.492.467.745.809.253.341.51.78.767 1.314l1.778 3.702c.25.518.426.98.53 1.39.106.41.16.773.165 1.09.004.318-.035.593-.117.825a2.327 2.327 0 0 1-.307.6 1.839 1.839 0 0 1-.408.412c-.15.106-.29.192-.42.255l-.003.002Zm-.573-1.192a.831.831 0 0 0 .315-.25.662.662 0 0 0 .117-.395 1.997 1.997 0 0 0-.1-.588 6.087 6.087 0 0 0-.339-.836l-2.284-4.754a6.576 6.576 0 0 0-.453-.815 2.132 2.132 0 0 0-.41-.47.71.71 0 0 0-.389-.17.797.797 0 0 0-.394.084.806.806 0 0 0-.32.26.727.727 0 0 0-.116.414c-.002.17.034.374.109.614s.192.529.352.862l2.284 4.755c.157.327.304.588.44.786.137.198.27.346.4.444.13.1.259.15.388.153a.86.86 0 0 0 .4-.095v.001Zm1.527-11.769 1.46-.447 2.982 9.765 1.99-.608.405 1.324-3.452 1.056-3.385-11.091v.001Zm6.976-1.739 3.7-.502.185 1.373-2.185.296.465 3.439 1.69-.229.185 1.372-1.69.229.533 3.936 2.244-.304.185 1.372-3.757.508-1.555-11.491v.001Zm8.342.733-1.621-.039.032-1.384 4.764.112-.033 1.386-1.617-.04-.24 10.21-1.526-.036.24-10.21h.001Zm7.809-.692 1.727.331-.345 11.741-1.517-.291.117-2.093-1.807-.346-.65 1.99-1.525-.292 4.002-11.04h-.002Zm.055 8.354.39-5.807-.065-.012-1.785 5.54 1.46.28Z" fill="#fff" stroke="#fff" stroke-miterlimit="10"/><path d="M59.964 94.098c-18.83 0-34.066-15.251-34.066-34.099s15.237-34.1 34.066-34.1c18.83 0 34.139 15.252 34.139 34.1s-15.31 34.1-34.139 34.1Z" fill="#6A2963"/><path d="M98.67 48.602c-1.378-4.82-8.008-6.792-19.858-5.91-8.038.566-15.639 1.928-22.754 4.066-7.142 2.112-14.208 5.142-21.224 9.089-10.332 5.742-14.78 10.999-13.326 15.776 1.436 4.776 8.014 6.714 19.792 5.85 8.086-.579 15.637-1.921 22.628-3.996 7.113-2.114 14.176-5.12 21.237-9.04 10.364-5.835 14.891-11.109 13.505-15.834v-.001Z" fill="#D4DAEC"/><path d="M98.744 49.007c-1.324-4.835-7.93-6.881-19.792-6.131-8.042.475-15.658 1.752-22.797 3.81-7.167 2.03-14.264 4.982-21.324 8.85-10.396 5.627-14.903 10.832-13.503 15.626 1.382 4.792 7.94 6.803 19.726 6.072 8.092-.49 15.658-1.746 22.672-3.743 7.136-2.034 14.232-4.962 21.337-8.802 10.428-5.72 15.015-10.943 13.681-15.682Zm-17.473 5.021c.73 2.607-1.67 5.434-7.197 8.476a59.89 59.89 0 0 1-12.063 4.932 58.231 58.231 0 0 1-12.803 2.173c-6.272.333-9.776-.82-10.529-3.434-.73-2.607 1.639-5.413 7.141-8.45a57.863 57.863 0 0 1 12.066-4.962 58.66 58.66 0 0 1 12.85-2.17c6.28-.356 9.803.797 10.536 3.434l-.001.001Zm-9.728 2.766c-1.012-3.55-5.377-4.209-13.099-2.005-7.72 2.205-11.064 5.099-10.069 8.642 1.02 3.526 5.355 4.181 13.077 1.978 7.723-2.205 11.084-5.067 10.091-8.617v.002Zm-5.445 25.013c-8.282 2.353-18.043 3.313-29.332 2.906-14.787-.502-23.162-4.082-25.107-10.78-2.256-7.735 2.521-15.387 14.299-22.987 8.388-5.529 17.67-9.746 27.8-12.65 8.333-2.396 18.246-3.396 29.69-3.023 14.84.505 23.202 4.163 25.067 10.949 1.868 6.758-3.384 14.27-15.741 22.536-9.498 6.325-18.396 10.697-26.678 13.05l.002-.001Z" fill="#090E35"/><path d="m53.246 100.569-.238 1.002-1.838-.438-1.32 5.559-1.136-.271 1.32-5.558-1.845-.44.239-1.002 4.82 1.147-.002.001Zm1.265 4.282-.277 2.62-1.161-.123.71-6.706 1.904.203c.427.045.786.131 1.08.258.294.126.528.284.706.475.176.191.297.408.362.655.066.246.083.511.054.796a2.162 2.162 0 0 1-.162.63 1.87 1.87 0 0 1-.803.905 2.207 2.207 0 0 1-.615.235c.137.105.25.247.338.426l1.3 2.642-1.045-.11a.488.488 0 0 1-.25-.092.55.55 0 0 1-.16-.205l-1.084-2.286a.464.464 0 0 0-.145-.188.536.536 0 0 0-.255-.079l-.497-.054v-.002Zm.095-.896.725.078c.22.022.412.014.582-.028.17-.042.31-.109.428-.202a.988.988 0 0 0 .274-.343c.067-.136.11-.29.127-.461.036-.34-.041-.612-.23-.817-.188-.204-.498-.329-.927-.375l-.743-.078-.236 2.226Zm5.964 3.886-1.171-.005.03-6.744 1.171.006-.03 6.743Zm6.118-2.016a.213.213 0 0 1 .172.063l.51.489a2.57 2.57 0 0 1-.858.867c-.352.217-.788.35-1.306.402a2.95 2.95 0 0 1-1.276-.131 2.787 2.787 0 0 1-1.018-.615 3.18 3.18 0 0 1-.711-1.027 4.369 4.369 0 0 1-.347-1.357 3.94 3.94 0 0 1 .096-1.408c.114-.435.298-.817.55-1.15.252-.331.566-.6.942-.808a3.297 3.297 0 0 1 1.278-.384c.464-.046.877-.006 1.24.118.362.124.681.306.954.545l-.33.619a.398.398 0 0 1-.079.107.246.246 0 0 1-.145.056.331.331 0 0 1-.211-.063 2.02 2.02 0 0 0-.703-.295 1.91 1.91 0 0 0-.628-.021 1.96 1.96 0 0 0-.793.245 1.826 1.826 0 0 0-.588.534 2.22 2.22 0 0 0-.341.786 3.035 3.035 0 0 0-.051 1.002c.037.377.12.707.25.991.127.285.287.518.477.702a1.727 1.727 0 0 0 1.405.489c.159-.016.301-.039.427-.071.126-.031.241-.072.345-.123a1.5 1.5 0 0 0 .29-.185c.091-.074.178-.16.265-.263a.434.434 0 0 1 .084-.076.22.22 0 0 1 .101-.036l-.001-.002Zm7.31-3.487c.121.479.16.941.114 1.388a3.297 3.297 0 0 1-.357 1.219 2.928 2.928 0 0 1-.795.945 3.188 3.188 0 0 1-1.194.571 3.17 3.17 0 0 1-1.324.07 2.939 2.939 0 0 1-1.154-.45 3.284 3.284 0 0 1-.898-.9 4.02 4.02 0 0 1-.562-1.274 3.99 3.99 0 0 1-.114-1.389 3.28 3.28 0 0 1 .36-1.22c.194-.367.461-.683.798-.946a3.195 3.195 0 0 1 1.196-.571c.46-.118.902-.14 1.323-.067.421.072.804.223 1.15.451.343.228.642.527.894.898s.439.796.561 1.275h.002Zm-1.162.295a3.37 3.37 0 0 0-.377-.932 2.12 2.12 0 0 0-.565-.628 1.705 1.705 0 0 0-.72-.303 2.007 2.007 0 0 0-.842.045 2.027 2.027 0 0 0-.764.363 1.71 1.71 0 0 0-.492.612 2.165 2.165 0 0 0-.201.823 3.29 3.29 0 0 0 .11 1c.091.359.218.669.38.93.163.262.353.47.569.625.217.155.458.255.722.299.266.045.547.029.844-.047.298-.074.551-.196.762-.361.21-.166.373-.369.488-.608a2.11 2.11 0 0 0 .197-.819 3.375 3.375 0 0 0-.112-.999h.001Zm4.125.997 2.333-.937.386.961-3.418 1.372-2.508-6.259 1.084-.435 2.123 5.298Zm3.789-3.462 1.263 2.311-1.024.562-3.236-5.915 1.68-.92c.375-.206.72-.341 1.032-.405.314-.064.598-.068.851-.012.253.056.477.167.67.33.195.166.36.373.498.624.11.199.184.402.227.609a1.886 1.886 0 0 1-.144 1.201 2.216 2.216 0 0 1-.374.545 1.2 1.2 0 0 1 .522.156l2.573 1.428-.921.506a.483.483 0 0 1-.258.067.544.544 0 0 1-.248-.078l-2.193-1.258a.489.489 0 0 0-.225-.074.532.532 0 0 0-.255.082l-.439.24v.001Zm-.433-.789.64-.35a1.69 1.69 0 0 0 .462-.354c.114-.131.195-.267.236-.409a.994.994 0 0 0 .03-.439c-.024-.15-.076-.3-.158-.451-.164-.3-.383-.48-.655-.54-.272-.06-.597.014-.976.222l-.655.36 1.075 1.963.001-.002Zm8.915-5.786c.299.394.513.805.647 1.233.132.429.18.85.145 1.263a2.93 2.93 0 0 1-.364 1.181c-.207.374-.5.705-.877.992a3.181 3.181 0 0 1-1.192.58c-.416.101-.83.113-1.238.037a3.259 3.259 0 0 1-1.177-.478 3.994 3.994 0 0 1-1.013-.954 3.975 3.975 0 0 1-.647-1.234 3.295 3.295 0 0 1-.144-1.264c.036-.414.159-.809.367-1.184.208-.375.5-.706.88-.993.378-.287.774-.48 1.192-.578a2.984 2.984 0 0 1 1.233-.033c.407.076.797.235 1.175.478.377.243.714.56 1.013.954Zm-.953.726a3.343 3.343 0 0 0-.711-.71 2.152 2.152 0 0 0-.765-.358c-.26-.06-.52-.06-.782.002-.26.061-.513.185-.757.37a2.018 2.018 0 0 0-.561.633 1.71 1.71 0 0 0-.215.755 2.16 2.16 0 0 0 .136.837c.104.29.267.582.49.877.225.294.462.53.713.708a2.1 2.1 0 0 0 .766.354c.26.057.522.056.783-.007.261-.062.515-.185.759-.372s.43-.397.56-.63c.129-.235.2-.485.213-.75a2.13 2.13 0 0 0-.137-.832 3.39 3.39 0 0 0-.492-.876Zm6.002-3.347a.211.211 0 0 1 .172-.063l.706.044c.065.42.032.825-.098 1.217-.129.393-.377.776-.74 1.15a2.983 2.983 0 0 1-1.06.723c-.38.148-.773.21-1.174.185a3.174 3.174 0 0 1-1.204-.326 4.386 4.386 0 0 1-1.139-.815 3.979 3.979 0 0 1-.833-1.14 3.236 3.236 0 0 1-.32-1.233 2.98 2.98 0 0 1 .201-1.227c.155-.401.397-.774.73-1.116.326-.335.667-.57 1.025-.71a2.826 2.826 0 0 1 1.081-.199l.145.688a.343.343 0 0 1 .008.132.24.24 0 0 1-.074.137.325.325 0 0 1-.203.088 2.193 2.193 0 0 0-.728.227 1.974 1.974 0 0 0-.495.389 1.985 1.985 0 0 0-.449.7c-.093.254-.13.517-.106.787.022.27.103.544.245.82.141.277.343.544.605.799.272.264.548.465.83.598.28.135.553.21.817.23a1.726 1.726 0 0 0 1.39-.533c.11-.115.204-.224.28-.33a1.52 1.52 0 0 0 .288-.647 1.96 1.96 0 0 0 .034-.371c0-.04.005-.078.016-.112a.206.206 0 0 1 .055-.092h-.005Zm.103-3.807.161-.22a.683.683 0 0 0 .123-.25.462.462 0 0 0-.016-.243l-.872-2.793a.64.64 0 0 1-.032-.307.682.682 0 0 1 .132-.277l.596-.813 1.005 3.365c.03.105.052.2.063.283a.824.824 0 0 1 0 .243.857.857 0 0 1 .28-.115c.1-.022.215-.03.343-.025l3.832.109-.612.834a.61.61 0 0 1-.235.214c-.073.03-.157.04-.25.03l-3.055-.04a.54.54 0 0 0-.256.054.726.726 0 0 0-.226.216l-.218.298 2.388 1.755-.691.942-5.433-3.992.69-.942 2.28 1.675.003-.001Z" fill="#fff" stroke="#fff" stroke-miterlimit="10"/><path d="M59.943 5.367c30.168 0 54.696 24.434 54.696 54.631 0 30.198-24.527 54.632-54.696 54.632-30.17 0-54.58-24.434-54.58-54.632 0-30.197 24.412-54.631 54.58-54.631Zm0-2.684c-7.735 0-15.237 1.515-22.299 4.5a57.014 57.014 0 0 0-18.2 12.277A57.065 57.065 0 0 0 7.18 37.678c-2.984 7.067-4.497 14.577-4.497 22.32 0 7.744 1.513 15.252 4.497 22.321a57.1 57.1 0 0 0 12.265 18.218 57.028 57.028 0 0 0 18.2 12.276c7.062 2.987 14.564 4.501 22.299 4.501 7.735 0 15.244-1.514 22.316-4.501a57.222 57.222 0 0 0 18.239-12.274 57.108 57.108 0 0 0 12.306-18.216c2.998-7.07 4.518-14.581 4.518-22.323 0-7.742-1.52-15.253-4.518-22.324a57.114 57.114 0 0 0-12.306-18.216 57.213 57.213 0 0 0-18.24-12.274c-7.072-2.986-14.58-4.5-22.316-4.5v-.003Z" fill="#FCD81C"/></svg>